<svg xmlns="http://www.w3.org/2000/svg" xmlns:xlink="http://www.w3.org/1999/xlink" width="500" zoomAndPan="magnify" viewBox="0 0 375 374.999991" height="500" preserveAspectRatio="xMidYMid meet" version="1.0"><defs><clipPath id="e7ffba415d"><path d="M 65.355469 114 L 309.855469 114 L 309.855469 264 L 65.355469 264 Z M 65.355469 114 " clip-rule="nonzero"/></clipPath></defs><g clip-path="url(#e7ffba415d)"><path fill="#040606" d="M 302.144531 159.546875 C 307.109375 154.570312 309.855469 147.949219 309.855469 140.898438 C 309.855469 133.847656 307.109375 127.246094 302.144531 122.265625 C 291.894531 111.980469 275.214844 111.980469 264.949219 122.246094 L 190.691406 196.59375 C 188.984375 198.304688 186.222656 198.304688 184.515625 196.59375 L 110.261719 122.246094 C 100.011719 111.980469 83.3125 111.980469 73.0625 122.265625 C 68.082031 127.246094 65.355469 133.847656 65.355469 140.898438 C 65.355469 147.949219 68.082031 154.570312 73.0625 159.546875 L 168.996094 255.707031 C 173.976562 260.703125 180.578125 263.460938 187.605469 263.460938 C 194.632812 263.460938 201.230469 260.703125 206.195312 255.707031 L 302.144531 159.546875 " fill-opacity="1" fill-rule="nonzero"/></g></svg>