<svg xmlns="http://www.w3.org/2000/svg" xmlns:xlink="http://www.w3.org/1999/xlink" width="500" zoomAndPan="magnify" viewBox="0 0 375 374.999991" height="500" preserveAspectRatio="xMidYMid meet" version="1.0"><defs><clipPath id="86ccd3b55e"><path d="M 22 7 L 336.632812 7 L 336.632812 350 L 22 350 Z M 22 7 " clip-rule="nonzero"/></clipPath></defs><g clip-path="url(#86ccd3b55e)"><path fill="#000000" d="M 335.730469 20.042969 C 314.753906 14.082031 293.320312 9.179688 271.480469 7.894531 C 251.097656 6.6875 229.910156 8.699219 210.929688 16.652344 C 195.367188 23.183594 181.261719 33.570312 170.765625 46.792969 C 160.652344 59.554688 153.933594 75.148438 153.625 91.550781 C 153.242188 112.015625 163.183594 130.449219 169.9375 149.1875 C 175.832031 165.515625 179.59375 185.441406 170.898438 201.519531 C 166.714844 209.242188 159.769531 214.835938 151.6875 218.113281 C 143.628906 221.371094 134.878906 222.617188 126.296875 223.6875 C 117.546875 224.78125 108.71875 225.644531 100.179688 227.921875 C 90.046875 230.625 80.488281 235.148438 71.375 240.242188 C 55.753906 248.941406 39.632812 259.445312 30.1875 275.058594 C 25.257812 283.222656 22.933594 292.382812 22.6875 301.886719 C 22.398438 312.539062 24.238281 323.078125 24.96875 333.675781 C 25.316406 338.808594 25.371094 343.984375 24.855469 349.117188 C 24.757812 350.058594 26.21875 350.039062 26.3125 349.117188 C 28.441406 328.386719 20.132812 307.058594 26.503906 286.691406 C 31.992188 269.101562 47.191406 256.703125 62.277344 247.296875 C 70.988281 241.851562 80.105469 236.792969 89.664062 232.980469 C 98.566406 229.4375 107.761719 227.519531 117.242188 226.292969 C 133.265625 224.207031 151.457031 223.421875 164.21875 212.230469 C 177.230469 200.808594 178.996094 182.433594 176.175781 166.339844 C 172.742188 146.738281 162.070312 129.375 157.3125 110.15625 C 155.105469 101.210938 154.375 91.992188 155.832031 82.871094 C 157.140625 74.730469 159.960938 66.871094 163.933594 59.648438 C 172.109375 44.796875 184.832031 32.613281 199.417969 24.085938 C 216.34375 14.179688 235.824219 9.847656 255.320312 9.195312 C 277.101562 8.449219 298.789062 12.128906 319.859375 17.378906 C 325.042969 18.664062 330.183594 20.0625 335.308594 21.519531 C 336.25 21.726562 336.632812 20.3125 335.730469 20.042969 Z M 335.730469 20.042969 " fill-opacity="1" fill-rule="nonzero"/></g><path fill="#000000" d="M 335.386719 29.335938 C 318.824219 24.582031 301.878906 20.714844 284.777344 18.988281 C 280.863281 18.585938 276.949219 18.316406 273.015625 18.164062 C 260.023438 17.648438 246.742188 18.546875 234.058594 21.535156 C 227.492188 23.089844 221.082031 25.214844 214.941406 27.996094 C 205.019531 32.476562 195.769531 38.648438 187.785156 46.140625 C 183.890625 49.78125 180.300781 53.746094 177.097656 58 C 169.152344 68.480469 163.472656 80.804688 161.628906 93.890625 C 161.265625 96.4375 161.054688 99.007812 160.996094 101.613281 C 160.652344 117.324219 166.3125 131.867188 171.609375 146.238281 C 172.992188 150.011719 174.351562 153.789062 175.582031 157.5625 C 179.878906 170.824219 182.644531 186.324219 178.25 200.003906 C 177.40625 202.628906 176.3125 205.179688 174.910156 207.652344 C 170.707031 214.988281 163.914062 220.316406 156.0625 223.457031 C 148.214844 226.601562 139.75 227.828125 131.421875 228.898438 C 122.941406 229.992188 114.363281 230.855469 106.070312 233.058594 C 96.226562 235.664062 86.9375 240.015625 78.050781 244.898438 C 76.113281 245.953125 74.175781 247.046875 72.257812 248.175781 C 63.679688 253.179688 55.234375 258.867188 48.152344 265.824219 C 44.257812 269.65625 40.78125 273.851562 37.921875 278.527344 C 36.15625 281.421875 34.71875 284.449219 33.585938 287.570312 C 31.648438 292.976562 30.628906 298.667969 30.402344 304.492188 C 30.015625 314.820312 31.6875 325.070312 32.453125 335.339844 C 32.511719 336.242188 32.589844 337.140625 32.625 338.042969 C 32.855469 342.125 32.855469 346.207031 32.570312 350.289062 C 32.511719 351.207031 33.949219 351.148438 34.027344 350.230469 C 35.199219 333.5 30.265625 316.277344 32.242188 299.605469 C 32.625 296.289062 33.296875 292.996094 34.355469 289.738281 C 36.0625 284.410156 38.691406 279.582031 41.933594 275.175781 C 47.5 267.625 54.886719 261.339844 62.679688 255.976562 C 64.867188 254.460938 67.09375 253.042969 69.300781 251.664062 C 77.800781 246.433594 86.667969 241.585938 95.976562 237.925781 C 104.59375 234.535156 113.480469 232.675781 122.632812 231.449219 C 138.214844 229.378906 155.796875 228.496094 168.308594 217.84375 C 170.804688 215.71875 172.894531 213.339844 174.621094 210.773438 C 181.742188 200.214844 182.835938 186.496094 181.089844 174.0625 C 180.339844 168.773438 179.035156 163.636719 177.460938 158.558594 C 173.433594 145.585938 167.578125 133.074219 164.488281 119.644531 C 163.703125 116.25 163.144531 112.820312 162.800781 109.371094 C 162.28125 103.988281 162.378906 98.546875 163.222656 93.144531 C 164.449219 85.230469 167.097656 77.582031 170.820312 70.53125 C 173.046875 66.335938 175.621094 62.332031 178.480469 58.574219 C 185.523438 49.359375 194.371094 41.523438 204.136719 35.410156 C 209.359375 32.152344 214.867188 29.449219 220.546875 27.265625 C 232.273438 22.742188 244.824219 20.386719 257.449219 19.679688 C 261.882812 19.429688 266.335938 19.371094 270.789062 19.488281 C 287.351562 19.925781 303.894531 22.742188 320.03125 26.710938 C 320.492188 26.824219 320.972656 26.941406 321.433594 27.054688 C 325.445312 28.050781 329.4375 29.144531 333.429688 30.273438 C 333.964844 30.425781 334.503906 30.5625 335.039062 30.695312 C 335.921875 30.945312 336.269531 29.585938 335.386719 29.335938 Z M 335.386719 29.335938 " fill-opacity="1" fill-rule="nonzero"/><path fill="#000000" d="M 335.058594 38.609375 C 318.996094 33.953125 302.511719 30.371094 285.929688 28.992188 C 282.148438 28.683594 278.351562 28.472656 274.550781 28.398438 C 261.980469 28.148438 249.21875 29.335938 237.128906 32.574219 C 230.851562 34.261719 224.789062 36.464844 218.972656 39.320312 C 209.589844 43.917969 200.894531 50.085938 193.429688 57.503906 C 189.78125 61.105469 186.445312 65.015625 183.429688 69.191406 C 176.023438 79.460938 170.746094 91.476562 169 104.160156 C 168.652344 106.632812 168.460938 109.140625 168.382812 111.652344 C 168.019531 126.886719 173.164062 141.027344 177.789062 154.976562 C 178.996094 158.636719 180.1875 162.277344 181.222656 165.917969 C 184.871094 178.71875 186.941406 193.527344 182.316406 206.519531 C 181.433594 209.011719 180.300781 211.425781 178.882812 213.761719 C 174.660156 220.738281 168.019531 225.777344 160.382812 228.804688 C 152.761719 231.8125 144.550781 233.039062 136.488281 234.113281 C 128.257812 235.203125 119.945312 236.085938 111.90625 238.210938 C 102.347656 240.742188 93.308594 244.882812 84.671875 249.574219 C 82.792969 250.589844 80.910156 251.644531 79.03125 252.71875 C 70.683594 257.527344 62.46875 263.007812 55.578125 269.753906 C 51.796875 273.449219 48.402344 277.511719 45.601562 282.035156 C 43.871094 284.832031 42.453125 287.765625 41.339844 290.773438 C 39.421875 295.984375 38.363281 301.503906 38.078125 307.136719 C 37.578125 317.117188 39.09375 327.082031 39.898438 337.066406 C 39.976562 337.949219 40.035156 338.808594 40.09375 339.691406 C 40.339844 343.65625 40.378906 347.605469 40.246094 351.511719 C 40.207031 352.433594 41.648438 352.316406 41.683594 351.417969 C 42.261719 335.265625 37.867188 318.5 39.976562 302.363281 C 40.398438 299.164062 41.089844 295.984375 42.144531 292.824219 C 43.851562 287.6875 46.445312 283.011719 49.609375 278.757812 C 55.042969 271.457031 62.238281 265.402344 69.820312 260.230469 C 71.949219 258.773438 74.097656 257.394531 76.265625 256.089844 C 84.539062 251.050781 93.175781 246.433594 102.214844 242.925781 C 110.542969 239.6875 119.140625 237.886719 127.96875 236.679688 C 143.089844 234.609375 160.09375 233.652344 172.339844 223.535156 C 174.773438 221.523438 176.847656 219.261719 178.574219 216.828125 C 185.695312 206.828125 187.171875 193.796875 185.945312 181.878906 C 185.40625 176.820312 184.351562 171.875 183.027344 166.972656 C 179.628906 154.457031 174.371094 142.273438 171.609375 129.242188 C 170.917969 125.945312 170.398438 122.613281 170.113281 119.277344 C 169.671875 114.046875 169.765625 108.777344 170.554688 103.527344 C 171.722656 95.84375 174.199219 88.410156 177.652344 81.53125 C 179.726562 77.429688 182.125 73.523438 184.792969 69.84375 C 191.375 60.796875 199.628906 53.019531 208.820312 46.886719 C 213.734375 43.609375 218.914062 40.851562 224.328125 38.589844 C 235.4375 33.894531 247.433594 31.289062 259.582031 30.3125 C 263.859375 29.96875 268.140625 29.816406 272.4375 29.832031 C 288.425781 29.929688 304.507812 32.402344 320.1875 36.195312 C 320.648438 36.308594 321.089844 36.425781 321.550781 36.519531 C 325.445312 37.480469 329.320312 38.53125 333.179688 39.644531 C 333.714844 39.796875 334.234375 39.914062 334.734375 40.007812 C 335.578125 40.140625 335.902344 38.859375 335.058594 38.609375 Z M 335.058594 38.609375 " fill-opacity="1" fill-rule="nonzero"/><path fill="#000000" d="M 334.714844 47.902344 C 319.148438 43.34375 303.125 40.046875 287.082031 39.011719 C 283.417969 38.78125 279.75 38.648438 276.085938 38.667969 C 263.957031 38.707031 251.695312 40.160156 240.179688 43.628906 C 234.210938 45.429688 228.453125 47.75 222.984375 50.660156 C 214.136719 55.355469 206.019531 61.546875 199.050781 68.882812 C 195.65625 72.449219 192.546875 76.300781 189.761719 80.398438 C 182.894531 90.480469 178 102.148438 176.367188 114.46875 C 176.042969 116.863281 175.851562 119.296875 175.792969 121.730469 C 175.390625 136.484375 180.035156 150.242188 184.007812 163.734375 C 185.042969 167.277344 186.039062 170.804688 186.902344 174.308594 C 189.898438 186.667969 191.300781 200.753906 186.445312 213.054688 C 185.523438 215.410156 184.351562 217.710938 182.929688 219.914062 C 178.691406 226.503906 172.203125 231.277344 164.796875 234.167969 C 157.40625 237.042969 149.460938 238.269531 141.632812 239.34375 C 133.667969 240.433594 125.609375 241.316406 117.816406 243.386719 C 108.546875 245.820312 99.777344 249.765625 91.351562 254.269531 C 89.527344 255.246094 87.6875 256.242188 85.863281 257.296875 C 77.746094 261.914062 69.761719 267.203125 63.0625 273.699219 C 59.378906 277.261719 56.078125 281.191406 53.351562 285.558594 C 51.664062 288.261719 50.261719 291.078125 49.167969 293.992188 C 47.25 299.03125 46.175781 304.339844 45.832031 309.800781 C 45.214844 319.457031 46.578125 329.132812 47.421875 338.789062 C 47.5 339.632812 47.558594 340.476562 47.632812 341.339844 C 47.921875 345.171875 48 348.984375 48 352.757812 C 48 353.660156 49.417969 353.527344 49.417969 352.605469 C 49.398438 337.027344 45.542969 320.742188 47.808594 305.144531 C 48.265625 302.039062 48.957031 298.972656 50.015625 295.925781 C 51.722656 290.984375 54.253906 286.460938 57.34375 282.359375 C 62.660156 275.308594 69.644531 269.484375 77.015625 264.519531 C 79.089844 263.121094 81.179688 261.800781 83.292969 260.535156 C 91.332031 255.707031 99.71875 251.300781 108.507812 247.945312 C 116.550781 244.863281 124.839844 243.117188 133.339844 241.929688 C 148.023438 239.859375 164.414062 238.824219 176.40625 229.226562 C 178.785156 227.308594 180.839844 225.183594 182.566406 222.882812 C 189.667969 213.417969 191.546875 201.097656 190.839844 189.695312 C 190.53125 184.847656 189.707031 180.117188 188.632812 175.382812 C 185.847656 163.3125 181.203125 151.46875 178.765625 138.824219 C 178.152344 135.625 177.710938 132.402344 177.460938 129.148438 C 177.078125 124.070312 177.195312 118.953125 177.941406 113.875 C 179.035156 106.421875 181.339844 99.199219 184.542969 92.472656 C 186.460938 88.46875 188.6875 84.652344 191.164062 81.03125 C 197.265625 72.160156 204.945312 64.457031 213.5625 58.269531 C 218.167969 54.972656 223.039062 52.175781 228.144531 49.820312 C 238.644531 44.953125 250.082031 42.097656 261.769531 40.851562 C 265.875 40.410156 270 40.160156 274.148438 40.085938 C 289.578125 39.816406 305.199219 41.980469 320.417969 45.585938 C 320.859375 45.679688 321.300781 45.796875 321.742188 45.910156 C 325.523438 46.828125 329.28125 47.84375 333.023438 48.917969 C 333.542969 49.070312 334.042969 49.148438 334.523438 49.226562 C 335.25 49.359375 335.539062 48.152344 334.714844 47.902344 Z M 334.714844 47.902344 " fill-opacity="1" fill-rule="nonzero"/><path fill="#000000" d="M 334.386719 57.175781 C 319.324219 52.710938 303.757812 49.722656 288.253906 49.015625 C 284.703125 48.859375 281.171875 48.824219 277.640625 48.898438 C 265.933594 49.207031 254.207031 50.949219 243.269531 54.648438 C 237.605469 56.5625 232.175781 58.976562 227.03125 61.949219 C 218.722656 66.757812 211.160156 72.964844 204.714844 80.207031 C 201.566406 83.734375 198.6875 87.527344 196.117188 91.53125 C 189.761719 101.421875 185.292969 112.746094 183.738281 124.683594 C 183.429688 127 183.238281 129.359375 183.179688 131.714844 C 182.757812 145.988281 186.867188 159.34375 190.1875 172.394531 C 191.050781 175.824219 191.875 179.214844 192.546875 182.605469 C 194.90625 194.523438 195.617188 207.898438 190.511719 219.511719 C 189.535156 221.734375 188.363281 223.898438 186.921875 225.96875 C 182.664062 232.175781 176.328125 236.699219 169.152344 239.457031 C 161.976562 242.21875 154.296875 243.425781 146.738281 244.496094 C 139.023438 245.589844 131.230469 246.492188 123.6875 248.484375 C 114.726562 250.839844 106.1875 254.597656 98.011719 258.886719 C 96.226562 259.828125 94.460938 260.785156 92.675781 261.78125 C 84.789062 266.207031 77.054688 271.285156 70.527344 277.550781 C 66.941406 280.980469 63.734375 284.792969 61.066406 288.992188 C 59.417969 291.597656 58.054688 294.316406 56.941406 297.132812 C 55.042969 301.980469 53.929688 307.117188 53.527344 312.386719 C 52.816406 321.71875 53.988281 331.105469 54.871094 340.4375 C 54.945312 341.261719 55.023438 342.085938 55.097656 342.890625 C 55.425781 346.589844 55.539062 350.289062 55.675781 353.910156 C 55.714844 354.808594 57.113281 354.617188 57.09375 353.71875 C 56.519531 338.734375 53.140625 322.886719 55.578125 307.84375 C 56.058594 304.855469 56.789062 301.886719 57.824219 298.972656 C 59.53125 294.203125 62.007812 289.871094 65.039062 285.90625 C 70.222656 279.121094 77.015625 273.507812 84.175781 268.738281 C 86.1875 267.394531 88.222656 266.128906 90.257812 264.921875 C 98.070312 260.285156 106.226562 256.109375 114.746094 252.910156 C 122.5 249.976562 130.5 248.292969 138.675781 247.121094 C 152.898438 245.054688 168.710938 243.941406 180.4375 234.878906 C 182.777344 233.078125 184.792969 231.066406 186.519531 228.902344 C 193.621094 219.972656 195.886719 208.359375 195.695312 197.476562 C 195.597656 192.859375 195.023438 188.316406 194.175781 183.757812 C 192.027344 172.125 187.980469 160.648438 185.867188 148.382812 C 185.332031 145.300781 184.945312 142.15625 184.753906 139.015625 C 184.429688 134.109375 184.5625 129.148438 185.273438 124.222656 C 186.308594 117 188.421875 109.984375 191.375 103.433594 C 193.140625 99.542969 195.195312 95.804688 197.476562 92.242188 C 203.101562 83.542969 210.203125 75.898438 218.242188 69.6875 C 222.542969 66.375 227.109375 63.519531 231.90625 61.085938 C 241.789062 56.066406 252.671875 52.941406 263.878906 51.429688 C 267.8125 50.890625 271.785156 50.546875 275.777344 50.394531 C 290.632812 49.78125 305.792969 51.601562 320.550781 55.011719 C 320.972656 55.109375 321.414062 55.203125 321.835938 55.316406 C 325.503906 56.199219 329.148438 57.175781 332.777344 58.230469 C 333.292969 58.382812 333.773438 58.441406 334.214844 58.480469 C 334.925781 58.574219 335.175781 57.425781 334.386719 57.175781 Z M 334.386719 57.175781 " fill-opacity="1" fill-rule="nonzero"/><path fill="#000000" d="M 334.042969 66.46875 C 319.476562 62.121094 304.371094 59.398438 289.402344 59.035156 C 285.988281 58.957031 282.570312 58.996094 279.175781 59.167969 C 267.910156 59.746094 256.683594 61.792969 246.320312 65.722656 C 240.945312 67.753906 235.839844 70.285156 231.042969 73.3125 C 223.269531 78.214844 216.265625 84.445312 210.335938 91.609375 C 207.4375 95.097656 204.808594 98.832031 202.449219 102.761719 C 196.632812 112.4375 192.546875 123.457031 191.105469 134.992188 C 190.820312 137.234375 190.644531 139.511719 190.570312 141.792969 C 190.109375 155.589844 193.71875 168.5625 196.382812 181.167969 C 197.074219 184.484375 197.726562 187.761719 198.207031 191 C 199.914062 202.476562 199.933594 215.125 194.617188 226.046875 C 193.601562 228.132812 192.394531 230.164062 190.953125 232.121094 C 186.675781 237.945312 180.511719 242.199219 173.546875 244.824219 C 166.601562 247.449219 159.191406 248.65625 151.878906 249.730469 C 144.433594 250.820312 136.910156 251.742188 129.582031 253.636719 C 120.90625 255.898438 112.632812 259.460938 104.6875 263.5625 C 102.960938 264.464844 101.234375 265.363281 99.507812 266.324219 C 91.851562 270.558594 84.347656 275.441406 78.015625 281.480469 C 74.539062 284.792969 71.410156 288.453125 68.800781 292.496094 C 67.191406 295.007812 65.847656 297.632812 64.753906 300.332031 C 62.871094 305.007812 61.71875 309.953125 61.261719 315.03125 C 60.433594 324.035156 61.453125 333.117188 62.371094 342.164062 C 62.449219 342.949219 62.527344 343.753906 62.601562 344.539062 C 62.949219 348.121094 63.140625 351.667969 63.390625 355.152344 C 63.449219 356.054688 64.847656 355.804688 64.792969 354.90625 C 63.679688 340.515625 60.78125 325.109375 63.351562 310.625 C 63.871094 307.75 64.597656 304.894531 65.65625 302.078125 C 67.363281 297.496094 69.800781 293.320312 72.753906 289.507812 C 77.820312 282.972656 84.40625 277.589844 91.351562 273.007812 C 93.308594 271.726562 95.285156 270.519531 97.261719 269.351562 C 104.84375 264.921875 112.769531 260.9375 121.019531 257.910156 C 128.488281 255.132812 136.183594 253.503906 144.050781 252.355469 C 157.808594 250.285156 173.027344 249.097656 184.503906 240.570312 C 186.789062 238.863281 188.765625 236.988281 190.511719 234.9375 C 197.59375 226.5625 200.261719 215.640625 200.585938 205.273438 C 200.703125 200.886719 200.375 196.519531 199.78125 192.148438 C 198.246094 180.976562 194.8125 169.824219 193.046875 157.945312 C 192.605469 154.957031 192.277344 151.929688 192.105469 148.882812 C 191.855469 144.132812 191.988281 139.339844 192.640625 134.570312 C 193.601562 127.574219 195.539062 120.773438 198.246094 114.390625 C 199.859375 110.597656 201.738281 106.9375 203.832031 103.46875 C 208.972656 94.945312 215.5 87.375 222.945312 81.109375 C 226.9375 77.773438 231.179688 74.863281 235.6875 72.351562 C 244.957031 67.160156 255.28125 63.789062 266.011719 62.003906 C 269.769531 61.375 273.589844 60.933594 277.429688 60.683594 C 291.726562 59.726562 306.425781 61.199219 320.722656 64.4375 C 321.144531 64.535156 321.550781 64.628906 321.972656 64.726562 C 325.523438 65.550781 329.054688 66.507812 332.546875 67.542969 C 333.042969 67.695312 333.503906 67.714844 333.925781 67.734375 C 334.578125 67.792969 334.808594 66.699219 334.042969 66.46875 Z M 334.042969 66.46875 " fill-opacity="1" fill-rule="nonzero"/><path fill="#000000" d="M 333.695312 75.746094 C 319.628906 71.492188 304.988281 69.058594 290.554688 69.058594 C 287.253906 69.058594 283.972656 69.171875 280.710938 69.441406 C 269.886719 70.300781 259.160156 72.621094 249.371094 76.777344 C 244.304688 78.945312 239.527344 81.550781 235.054688 84.652344 C 227.820312 89.675781 221.390625 95.921875 215.960938 102.992188 C 213.3125 106.441406 210.914062 110.121094 208.761719 113.972656 C 203.484375 123.457031 199.800781 134.128906 198.4375 145.28125 C 198.167969 147.445312 197.996094 149.648438 197.917969 151.851562 C 197.441406 165.167969 200.53125 177.738281 202.542969 189.90625 C 203.0625 193.105469 203.542969 196.269531 203.832031 199.371094 C 204.90625 210.410156 204.234375 222.347656 198.667969 232.578125 C 197.613281 234.535156 196.367188 236.429688 194.925781 238.25 C 190.628906 243.691406 184.621094 247.679688 177.882812 250.1875 C 171.167969 252.699219 164.007812 253.886719 156.945312 254.960938 C 149.75 256.050781 142.496094 256.972656 135.414062 258.8125 C 127.027344 260.996094 119.007812 264.347656 111.308594 268.257812 C 109.640625 269.101562 107.953125 269.980469 106.300781 270.882812 C 98.894531 274.925781 91.601562 279.601562 85.441406 285.40625 C 82.0625 288.585938 79.03125 292.113281 76.476562 296.003906 C 74.90625 298.417969 73.582031 300.925781 72.488281 303.535156 C 70.605469 308.015625 69.433594 312.789062 68.917969 317.675781 C 67.976562 326.355469 68.839844 335.148438 69.800781 343.867188 C 69.875 344.632812 69.972656 345.402344 70.050781 346.148438 C 70.433594 349.597656 70.664062 353.027344 71.046875 356.34375 C 71.144531 357.222656 72.542969 356.9375 72.429688 356.054688 C 70.816406 342.257812 68.359375 327.3125 71.085938 313.363281 C 71.621094 310.585938 72.390625 307.84375 73.425781 305.164062 C 75.136719 300.773438 77.515625 296.75 80.394531 293.089844 C 85.324219 286.804688 91.714844 281.652344 98.453125 277.28125 C 100.351562 276.054688 102.269531 274.886719 104.191406 273.796875 C 111.539062 269.5625 119.234375 265.804688 127.21875 262.910156 C 134.398438 260.285156 141.785156 258.714844 149.328125 257.566406 C 162.648438 255.496094 177.269531 254.230469 188.476562 246.242188 C 190.703125 244.652344 192.660156 242.886719 194.40625 240.972656 C 201.46875 233.136719 204.539062 222.921875 205.386719 213.074219 C 205.730469 208.894531 205.632812 204.738281 205.289062 200.542969 C 204.386719 189.8125 201.546875 179.003906 200.109375 167.527344 C 199.742188 164.632812 199.472656 161.703125 199.359375 158.769531 C 199.167969 154.171875 199.320312 149.554688 199.933594 144.9375 C 200.835938 138.171875 202.582031 131.582031 205.039062 125.371094 C 206.5 121.671875 208.207031 118.109375 210.105469 114.699219 C 214.789062 106.34375 220.71875 98.832031 227.589844 92.546875 C 231.253906 89.195312 235.207031 86.226562 239.410156 83.636719 C 248.066406 78.273438 257.835938 74.652344 268.082031 72.601562 C 271.671875 71.875 275.335938 71.355469 279.019531 70.992188 C 292.761719 69.6875 307.003906 70.820312 320.820312 73.886719 C 321.222656 73.980469 321.625 74.058594 322.027344 74.152344 C 325.464844 74.9375 328.878906 75.859375 332.257812 76.875 C 332.738281 77.027344 333.199219 77.007812 333.582031 77.027344 C 334.253906 77.046875 334.445312 75.972656 333.695312 75.746094 Z M 333.695312 75.746094 " fill-opacity="1" fill-rule="nonzero"/><path fill="#000000" d="M 333.371094 85.039062 C 319.800781 80.878906 305.621094 78.753906 291.726562 79.078125 C 288.558594 79.15625 285.394531 79.367188 282.265625 79.691406 C 271.863281 80.820312 261.652344 83.429688 252.460938 87.816406 C 247.703125 90.097656 243.230469 92.816406 239.105469 95.976562 C 232.40625 101.09375 226.535156 107.359375 221.621094 114.355469 C 219.222656 117.765625 217.054688 121.386719 215.132812 125.140625 C 210.375 134.417969 207.09375 144.78125 205.847656 155.550781 C 205.597656 157.660156 205.441406 159.765625 205.347656 161.894531 C 204.828125 174.730469 207.417969 186.898438 208.761719 198.625 C 209.109375 201.710938 209.394531 204.738281 209.511719 207.726562 C 209.933594 218.324219 208.589844 229.53125 202.773438 239.074219 C 201.660156 240.894531 200.394531 242.65625 198.957031 244.363281 C 194.636719 249.421875 188.785156 253.140625 182.261719 255.515625 C 175.753906 257.890625 168.863281 259.078125 162.070312 260.152344 C 155.125 261.246094 148.136719 262.183594 141.304688 263.945312 C 133.207031 266.035156 125.453125 269.195312 117.988281 272.914062 C 116.359375 273.71875 114.746094 274.5625 113.132812 275.425781 C 105.957031 279.277344 98.894531 283.757812 92.925781 289.316406 C 89.644531 292.363281 86.707031 295.753906 84.210938 299.492188 C 82.675781 301.808594 81.371094 304.222656 80.296875 306.714844 C 78.4375 311.007812 77.226562 315.585938 76.652344 320.300781 C 75.613281 328.652344 76.285156 337.160156 77.304688 345.574219 C 77.398438 346.300781 77.476562 347.050781 77.574219 347.777344 C 77.996094 351.09375 78.28125 354.386719 78.78125 357.570312 C 78.914062 358.449219 80.296875 358.105469 80.144531 357.222656 C 78.03125 344.019531 76.019531 329.515625 78.898438 316.101562 C 79.472656 313.441406 80.238281 310.816406 81.296875 308.226562 C 83.003906 304.011719 85.34375 300.160156 88.148438 296.65625 C 92.964844 290.617188 99.144531 285.675781 105.6875 281.515625 C 107.511719 280.347656 109.371094 279.238281 111.234375 278.183594 C 118.351562 274.160156 125.820312 270.613281 133.535156 267.875 C 140.441406 265.402344 147.523438 263.890625 154.738281 262.757812 C 167.597656 260.707031 181.625 259.347656 192.585938 251.894531 C 194.753906 250.417969 196.691406 248.769531 198.417969 246.988281 C 205.480469 239.6875 208.9375 230.183594 210.277344 220.871094 C 210.835938 216.925781 210.988281 212.957031 210.875 208.933594 C 210.585938 198.644531 208.359375 188.183594 207.246094 177.089844 C 206.957031 174.289062 206.765625 171.472656 206.691406 168.636719 C 206.574219 164.210938 206.730469 159.726562 207.304688 155.28125 C 208.128906 148.75 209.703125 142.367188 211.910156 136.332031 C 213.214844 132.730469 214.75 129.261719 216.457031 125.910156 C 220.660156 117.726562 226.015625 110.292969 232.308594 103.949219 C 235.667969 100.578125 239.296875 97.570312 243.210938 94.886719 C 251.253906 89.347656 260.464844 85.476562 270.230469 83.160156 C 273.667969 82.355469 277.160156 81.722656 280.710938 81.261719 C 293.875 79.613281 307.65625 80.417969 321.011719 83.292969 C 321.394531 83.371094 321.78125 83.464844 322.183594 83.542969 C 325.503906 84.289062 328.804688 85.171875 332.046875 86.167969 C 332.527344 86.320312 332.949219 86.300781 333.3125 86.265625 C 333.90625 86.226562 334.082031 85.25 333.371094 85.039062 Z M 333.371094 85.039062 " fill-opacity="1" fill-rule="nonzero"/><path fill="#000000" d="M 333.023438 94.3125 C 319.976562 90.269531 306.214844 88.410156 292.878906 89.082031 C 289.824219 89.234375 286.792969 89.519531 283.800781 89.941406 C 273.839844 91.339844 264.128906 94.253906 255.511719 98.871094 C 251.039062 101.265625 246.914062 104.082031 243.113281 107.304688 C 236.953125 112.535156 231.65625 118.800781 227.242188 125.734375 C 225.09375 129.109375 223.175781 132.652344 221.449219 136.351562 C 217.226562 145.433594 214.347656 155.457031 213.195312 165.839844 C 212.964844 167.871094 212.8125 169.902344 212.714844 171.953125 C 212.179688 184.3125 214.230469 196.097656 214.941406 207.382812 C 215.113281 210.351562 215.230469 213.265625 215.152344 216.121094 C 214.921875 226.273438 212.90625 236.757812 206.863281 245.609375 C 205.710938 247.296875 204.425781 248.941406 202.96875 250.496094 C 198.628906 255.171875 192.929688 258.621094 186.636719 260.878906 C 180.359375 263.121094 173.738281 264.308594 167.195312 265.363281 C 160.515625 266.457031 153.78125 267.394531 147.199219 269.101562 C 139.386719 271.113281 131.882812 274.082031 124.667969 277.589844 C 123.09375 278.355469 121.519531 279.140625 119.964844 279.964844 C 113.019531 283.625 106.207031 287.898438 100.410156 293.226562 C 97.242188 296.15625 94.382812 299.394531 91.964844 302.976562 C 90.46875 305.199219 89.183594 307.5 88.109375 309.894531 C 86.265625 314.015625 85.019531 318.402344 84.386719 322.925781 C 83.234375 330.953125 83.75 339.15625 84.808594 347.257812 C 84.902344 347.96875 85 348.675781 85.09375 349.386719 C 85.535156 352.585938 85.902344 355.75 86.515625 358.777344 C 86.6875 359.65625 88.050781 359.253906 87.878906 358.375 C 85.304688 345.765625 83.695312 331.699219 86.707031 318.84375 C 87.300781 316.296875 88.109375 313.765625 89.144531 311.3125 C 90.851562 307.289062 93.136719 303.609375 95.863281 300.238281 C 100.5625 294.449219 106.53125 289.738281 112.863281 285.769531 C 114.628906 284.660156 116.433594 283.605469 118.238281 282.609375 C 125.148438 278.796875 132.34375 275.460938 139.828125 272.875 C 146.449219 270.558594 153.222656 269.101562 160.132812 267.988281 C 172.550781 265.9375 185.964844 264.503906 196.671875 257.585938 C 198.800781 256.207031 200.703125 254.691406 202.429688 253.042969 C 209.472656 246.296875 213.347656 237.484375 215.191406 228.691406 C 215.980469 224.972656 216.363281 221.199219 216.496094 217.347656 C 216.84375 207.515625 215.210938 197.378906 214.425781 186.6875 C 214.230469 183.984375 214.097656 181.265625 214.058594 178.523438 C 214.003906 174.253906 214.175781 169.941406 214.691406 165.648438 C 215.460938 159.34375 216.863281 153.175781 218.800781 147.3125 C 219.96875 143.824219 221.3125 140.433594 222.828125 137.15625 C 226.554688 129.148438 231.332031 121.769531 237.050781 115.40625 C 240.101562 112.015625 243.421875 108.949219 247.03125 106.191406 C 254.457031 100.480469 263.113281 96.363281 272.402344 93.773438 C 275.664062 92.875 279.003906 92.144531 282.398438 91.589844 C 295.007812 89.578125 308.328125 90.058594 321.222656 92.757812 C 321.605469 92.835938 321.972656 92.914062 322.355469 93.007812 C 325.558594 93.71875 328.726562 94.5625 331.875 95.519531 C 332.335938 95.671875 332.757812 95.613281 333.082031 95.558594 C 333.582031 95.441406 333.714844 94.542969 333.023438 94.3125 Z M 333.023438 94.3125 " fill-opacity="1" fill-rule="nonzero"/><path fill="#000000" d="M 332.679688 103.605469 C 320.128906 99.65625 306.828125 98.085938 294.011719 99.101562 C 291.074219 99.332031 288.175781 99.695312 285.296875 100.195312 C 275.757812 101.878906 266.566406 105.0625 258.542969 109.910156 C 254.378906 112.417969 250.582031 115.332031 247.105469 118.628906 C 241.484375 123.953125 236.742188 130.257812 232.847656 137.097656 C 230.949219 140.433594 229.257812 143.921875 227.761719 147.523438 C 224.078125 156.394531 221.582031 166.089844 220.527344 176.09375 C 220.316406 178.046875 220.164062 180 220.066406 181.972656 C 219.492188 193.855469 221.046875 205.234375 221.101562 216.082031 C 221.101562 218.9375 221.027344 221.714844 220.777344 224.4375 C 219.894531 234.152344 217.1875 243.921875 210.914062 252.085938 C 209.722656 253.636719 208.398438 255.152344 206.941406 256.589844 C 202.582031 260.878906 197.035156 264.0625 190.972656 266.1875 C 184.925781 268.316406 178.554688 269.484375 172.261719 270.539062 C 165.832031 271.628906 159.363281 272.589844 153.03125 274.199219 C 145.507812 276.113281 138.253906 278.890625 131.289062 282.207031 C 129.773438 282.933594 128.257812 283.683594 126.738281 284.449219 C 120.023438 287.917969 113.441406 292 107.835938 297.09375 C 104.765625 299.894531 102.003906 302.996094 99.640625 306.425781 C 98.183594 308.535156 96.9375 310.757812 95.863281 313.039062 C 94.039062 316.964844 92.753906 321.179688 92.042969 325.511719 C 90.777344 333.214844 91.140625 341.128906 92.234375 348.90625 C 92.332031 349.597656 92.425781 350.269531 92.542969 350.9375 C 93.019531 354.003906 93.460938 357.03125 94.171875 359.925781 C 94.382812 360.789062 95.726562 360.347656 95.515625 359.484375 C 92.503906 347.46875 91.273438 333.867188 94.441406 321.546875 C 95.074219 319.09375 95.878906 316.699219 96.917969 314.339844 C 98.605469 310.507812 100.871094 306.984375 103.519531 303.761719 C 108.085938 298.246094 113.863281 293.742188 119.984375 289.96875 C 121.691406 288.914062 123.4375 287.917969 125.183594 286.960938 C 131.863281 283.335938 138.832031 280.234375 146.046875 277.800781 C 152.378906 275.632812 158.867188 274.234375 165.429688 273.144531 C 177.386719 271.09375 190.222656 269.578125 200.664062 263.199219 C 202.738281 261.933594 204.617188 260.535156 206.34375 259.003906 C 213.386719 252.792969 217.648438 244.6875 220.007812 236.410156 C 221.007812 232.90625 221.640625 229.339844 222.023438 225.679688 C 222.984375 216.292969 221.964844 206.5 221.503906 196.191406 C 221.390625 193.585938 221.3125 190.960938 221.3125 188.335938 C 221.3125 184.214844 221.503906 180.078125 221.984375 175.9375 C 222.675781 169.863281 223.90625 163.90625 225.59375 158.214844 C 226.609375 154.824219 227.78125 151.507812 229.105469 148.308594 C 232.367188 140.472656 236.550781 133.171875 241.675781 126.75 C 244.421875 123.339844 247.433594 120.21875 250.734375 117.402344 C 257.566406 111.519531 265.644531 107.148438 274.472656 104.292969 C 277.5625 103.296875 280.730469 102.472656 283.992188 101.824219 C 296.023438 99.464844 308.882812 99.601562 321.320312 102.128906 C 321.683594 102.207031 322.046875 102.28125 322.394531 102.359375 C 325.484375 103.03125 328.535156 103.835938 331.546875 104.773438 C 332.007812 104.925781 332.390625 104.851562 332.699219 104.753906 C 333.253906 104.660156 333.351562 103.816406 332.679688 103.605469 Z M 332.679688 103.605469 " fill-opacity="1" fill-rule="nonzero"/><path fill="#000000" d="M 332.355469 112.878906 C 320.300781 109.027344 307.460938 107.761719 295.179688 109.125 C 292.378906 109.429688 289.597656 109.890625 286.851562 110.464844 C 277.753906 112.417969 269.0625 115.886719 261.613281 120.964844 C 257.757812 123.609375 254.265625 126.617188 251.136719 129.96875 C 246.050781 135.414062 241.867188 141.714844 238.488281 148.480469 C 236.839844 151.777344 235.382812 155.207031 234.113281 158.730469 C 230.949219 167.410156 228.875 176.78125 227.914062 186.382812 C 227.722656 188.257812 227.589844 190.136719 227.492188 192.035156 C 226.898438 203.414062 227.933594 214.433594 227.320312 224.820312 C 227.148438 227.558594 226.898438 230.222656 226.457031 232.808594 C 224.921875 242.082031 221.542969 251.128906 215.039062 258.601562 C 213.789062 260.039062 212.449219 261.398438 210.988281 262.699219 C 206.613281 266.609375 201.21875 269.523438 195.386719 271.535156 C 189.550781 273.527344 183.46875 274.695312 177.421875 275.75 C 171.261719 276.84375 165.046875 277.800781 158.960938 279.351562 C 151.726562 281.191406 144.742188 283.757812 138.003906 286.882812 C 136.546875 287.554688 135.070312 288.261719 133.609375 288.988281 C 127.125 292.265625 120.773438 296.136719 115.359375 301.003906 C 112.386719 303.667969 109.71875 306.636719 107.414062 309.914062 C 105.996094 311.925781 104.765625 314.054688 103.710938 316.238281 C 101.886719 319.992188 100.582031 323.996094 99.816406 328.15625 C 98.453125 335.53125 98.644531 343.160156 99.777344 350.632812 C 99.871094 351.285156 99.988281 351.933594 100.101562 352.585938 C 100.621094 355.519531 101.140625 358.429688 101.945312 361.152344 C 102.195312 362.015625 103.539062 361.515625 103.269531 360.652344 C 99.832031 349.234375 98.96875 336.070312 102.269531 324.304688 C 102.921875 321.96875 103.769531 319.667969 104.804688 317.425781 C 106.492188 313.765625 108.699219 310.414062 111.273438 307.347656 C 115.722656 302.078125 121.289062 297.804688 127.199219 294.242188 C 128.851562 293.242188 130.539062 292.285156 132.230469 291.40625 C 138.675781 287.992188 145.414062 285.101562 152.359375 282.820312 C 158.40625 280.808594 164.585938 279.46875 170.839844 278.394531 C 182.335938 276.34375 194.582031 274.753906 204.769531 268.890625 C 206.785156 267.722656 208.648438 266.4375 210.375 265.058594 C 217.398438 259.386719 222.0625 251.988281 224.941406 244.230469 C 226.148438 240.953125 227.03125 237.582031 227.648438 234.09375 C 229.21875 225.144531 228.816406 215.699219 228.683594 205.773438 C 228.644531 203.28125 228.644531 200.753906 228.683594 198.222656 C 228.761719 194.257812 228.953125 190.289062 229.394531 186.324219 C 230.027344 180.480469 231.0625 174.75 232.503906 169.214844 C 233.367188 165.917969 234.363281 162.699219 235.496094 159.574219 C 238.277344 151.910156 241.886719 144.667969 246.433594 138.230469 C 248.871094 134.800781 251.558594 131.636719 254.570312 128.726562 C 260.789062 122.671875 268.3125 118.050781 276.660156 114.910156 C 279.578125 113.816406 282.589844 112.898438 285.699219 112.167969 C 297.175781 109.46875 309.574219 109.257812 321.550781 111.59375 C 321.894531 111.671875 322.238281 111.730469 322.585938 111.804688 C 325.558594 112.417969 328.496094 113.203125 331.394531 114.125 C 331.835938 114.257812 332.21875 114.183594 332.488281 114.046875 C 332.910156 113.894531 332.988281 113.089844 332.355469 112.878906 Z M 332.355469 112.878906 " fill-opacity="1" fill-rule="nonzero"/><path fill="#000000" d="M 332.007812 122.171875 C 320.457031 118.433594 308.078125 117.4375 296.332031 119.144531 C 293.644531 119.527344 290.996094 120.0625 288.386719 120.734375 C 279.730469 122.957031 271.535156 126.730469 264.667969 132.039062 C 261.097656 134.800781 257.949219 137.902344 255.148438 141.332031 C 250.597656 146.871094 246.992188 153.195312 244.113281 159.882812 C 242.710938 163.140625 241.503906 166.511719 240.429688 169.960938 C 237.800781 178.449219 236.128906 187.472656 235.265625 196.710938 C 235.09375 198.511719 234.957031 200.3125 234.863281 202.132812 C 234.230469 213.035156 234.765625 223.648438 233.5 233.613281 C 233.15625 236.238281 232.714844 238.789062 232.097656 241.242188 C 229.910156 250.074219 225.863281 258.410156 219.105469 265.191406 C 217.820312 266.496094 216.457031 267.722656 214.980469 268.910156 C 210.585938 272.433594 205.347656 275.097656 199.742188 276.957031 C 194.140625 278.816406 188.304688 279.984375 182.527344 281.039062 C 176.617188 282.128906 170.667969 283.109375 164.816406 284.582031 C 157.886719 286.328125 151.132812 288.722656 144.644531 291.632812 C 143.226562 292.265625 141.824219 292.9375 140.402344 293.628906 C 134.148438 296.710938 128.027344 300.371094 122.804688 305.007812 C 119.945312 307.539062 117.355469 310.394531 115.109375 313.496094 C 113.726562 315.414062 112.519531 317.425781 111.464844 319.515625 C 109.660156 323.078125 108.316406 326.910156 107.492188 330.875 C 106.011719 337.929688 106.03125 345.265625 107.222656 352.414062 C 107.320312 353.046875 107.433594 353.660156 107.550781 354.292969 C 108.085938 357.109375 108.699219 359.867188 109.601562 362.453125 C 109.910156 363.296875 111.214844 362.761719 110.925781 361.917969 C 107.089844 351.074219 106.570312 338.367188 110.023438 327.160156 C 110.714844 324.9375 111.558594 322.753906 112.597656 320.625 C 114.285156 317.15625 116.433594 313.957031 118.949219 311.046875 C 123.265625 306.023438 128.640625 301.980469 134.339844 298.609375 C 135.933594 297.671875 137.542969 296.769531 139.175781 295.925781 C 145.394531 292.707031 151.898438 290.042969 158.578125 287.917969 C 164.335938 286.058594 170.207031 284.792969 176.136719 283.703125 C 187.191406 281.652344 198.839844 279.984375 208.761719 274.65625 C 210.71875 273.605469 212.5625 272.433594 214.289062 271.1875 C 221.292969 266.074219 226.359375 259.367188 229.757812 252.125 C 231.199219 249.078125 232.308594 245.898438 233.175781 242.582031 C 235.382812 234.09375 235.574219 224.972656 235.785156 215.449219 C 235.824219 213.054688 235.878906 210.621094 235.976562 208.207031 C 236.109375 204.414062 236.320312 200.597656 236.707031 196.785156 C 237.261719 191.171875 238.125 185.652344 239.316406 180.289062 C 240.023438 177.089844 240.851562 173.964844 241.789062 170.898438 C 244.09375 163.40625 247.125 156.242188 251.097656 149.746094 C 253.210938 146.296875 255.609375 143.078125 258.3125 140.085938 C 263.917969 133.859375 270.882812 128.992188 278.753906 125.582031 C 281.496094 124.394531 284.355469 123.378906 287.3125 122.554688 C 298.210938 119.507812 310.167969 118.972656 321.664062 121.117188 C 321.992188 121.175781 322.335938 121.253906 322.664062 121.308594 C 325.523438 121.882812 328.34375 122.632812 331.105469 123.53125 C 331.546875 123.667969 331.894531 123.570312 332.144531 123.398438 C 332.582031 123.109375 332.621094 122.363281 332.007812 122.171875 Z M 332.007812 122.171875 " fill-opacity="1" fill-rule="nonzero"/><path fill="#000000" d="M 331.683594 131.445312 C 320.628906 127.804688 308.710938 127.097656 297.503906 129.148438 C 294.949219 129.605469 292.417969 130.21875 289.941406 130.96875 C 281.707031 133.476562 274.03125 137.519531 267.757812 143.058594 C 264.492188 145.933594 261.652344 149.152344 259.195312 152.621094 C 255.1875 158.273438 252.132812 164.613281 249.792969 171.207031 C 248.640625 174.425781 247.664062 177.738281 246.820312 181.09375 C 244.726562 189.371094 243.441406 198.070312 242.671875 206.921875 C 242.519531 208.648438 242.40625 210.390625 242.289062 212.113281 C 241.617188 222.539062 241.65625 232.75 239.738281 242.273438 C 239.21875 244.785156 238.605469 247.199219 237.800781 249.519531 C 234.941406 257.910156 230.21875 265.519531 223.234375 271.609375 C 221.910156 272.78125 220.507812 273.871094 219.03125 274.925781 C 214.617188 278.066406 209.53125 280.464844 204.136719 282.207031 C 198.765625 283.949219 193.199219 285.101562 187.652344 286.15625 C 182.011719 287.226562 176.3125 288.242188 170.707031 289.640625 C 164.066406 291.308594 157.582031 293.492188 151.304688 296.214844 C 149.941406 296.808594 148.578125 297.421875 147.234375 298.074219 C 141.210938 300.945312 135.335938 304.433594 130.289062 308.839844 C 127.527344 311.253906 125.03125 313.957031 122.84375 316.910156 C 121.5 318.730469 120.3125 320.644531 119.273438 322.617188 C 117.488281 326.011719 116.109375 329.652344 115.226562 333.425781 C 113.632812 340.152344 113.5 347.183594 114.726562 354.023438 C 114.839844 354.617188 114.957031 355.210938 115.070312 355.804688 C 115.648438 358.488281 116.339844 361.132812 117.335938 363.566406 C 117.683594 364.410156 118.988281 363.816406 118.640625 362.972656 C 114.417969 352.683594 114.226562 340.476562 117.835938 329.785156 C 118.546875 327.65625 119.429688 325.589844 120.464844 323.578125 C 122.152344 320.300781 124.265625 317.253906 126.703125 314.492188 C 130.90625 309.722656 136.066406 305.910156 141.574219 302.730469 C 143.109375 301.847656 144.664062 301.003906 146.238281 300.21875 C 152.226562 297.210938 158.5 294.757812 164.910156 292.785156 C 170.378906 291.078125 175.964844 289.871094 181.570312 288.796875 C 192.164062 286.765625 203.214844 285.003906 212.890625 280.214844 C 214.808594 279.257812 216.613281 278.222656 218.339844 277.109375 C 225.34375 272.53125 230.773438 266.515625 234.710938 259.808594 C 236.359375 256.972656 237.722656 254 238.835938 250.859375 C 241.65625 242.8125 242.480469 234.035156 243 224.894531 C 243.132812 222.597656 243.25 220.277344 243.382812 217.941406 C 243.574219 214.300781 243.804688 210.640625 244.152344 207 C 244.648438 201.632812 245.320312 196.308594 246.261719 191.113281 C 246.820312 188.03125 247.472656 184.984375 248.21875 181.972656 C 250.0625 174.65625 252.5 167.546875 255.894531 161.03125 C 257.699219 157.5625 259.773438 154.285156 262.191406 151.21875 C 267.179688 144.839844 273.589844 139.703125 280.980469 136.027344 C 283.570312 134.742188 286.257812 133.628906 289.058594 132.710938 C 299.402344 129.320312 310.878906 128.4375 321.933594 130.410156 C 322.257812 130.46875 322.566406 130.527344 322.890625 130.582031 C 325.636719 131.121094 328.34375 131.828125 330.992188 132.710938 C 331.414062 132.84375 331.757812 132.710938 331.96875 132.539062 C 332.238281 132.328125 332.257812 131.636719 331.683594 131.445312 Z M 331.683594 131.445312 " fill-opacity="1" fill-rule="nonzero"/><path fill="#000000" d="M 331.335938 140.738281 C 320.78125 137.195312 309.324219 136.773438 298.652344 139.167969 C 296.214844 139.703125 293.816406 140.414062 291.476562 141.238281 C 283.683594 144.015625 276.507812 148.347656 270.808594 154.113281 C 267.851562 157.101562 265.339844 160.417969 263.207031 163.960938 C 259.734375 169.710938 257.238281 176.074219 255.417969 182.585938 C 254.515625 185.769531 253.765625 189.027344 253.132812 192.300781 C 251.558594 200.386719 250.695312 208.761719 250.023438 217.210938 C 249.890625 218.859375 249.773438 220.527344 249.660156 222.175781 C 248.96875 232.121094 248.46875 241.949219 245.898438 251.011719 C 245.207031 253.40625 244.402344 255.707031 243.421875 257.890625 C 239.910156 265.824219 234.515625 272.742188 227.300781 278.144531 C 225.9375 279.179688 224.5 280.15625 223.023438 281.078125 C 218.589844 283.835938 213.65625 285.960938 208.496094 287.574219 C 203.351562 289.183594 198.035156 290.332031 192.757812 291.386719 C 187.363281 292.457031 181.933594 293.472656 176.578125 294.796875 C 170.226562 296.367188 163.988281 298.359375 157.964844 300.890625 C 156.660156 301.445312 155.335938 302.019531 154.050781 302.613281 C 148.253906 305.296875 142.609375 308.574219 137.753906 312.75 C 135.089844 315.03125 132.6875 317.597656 130.578125 320.394531 C 129.273438 322.121094 128.101562 323.921875 127.066406 325.800781 C 125.300781 329 123.878906 332.46875 122.941406 336.050781 C 121.25 342.449219 120.945312 349.195312 122.210938 355.730469 C 122.324219 356.304688 122.441406 356.859375 122.574219 357.433594 C 123.191406 359.984375 123.976562 362.472656 125.050781 364.792969 C 125.433594 365.617188 126.738281 364.984375 126.335938 364.160156 C 121.730469 354.425781 121.867188 342.699219 125.609375 332.5625 C 126.355469 330.550781 127.238281 328.597656 128.273438 326.699219 C 129.964844 323.613281 132.015625 320.742188 134.378906 318.117188 C 138.445312 313.613281 143.417969 310.011719 148.714844 307.019531 C 150.191406 306.195312 151.6875 305.410156 153.203125 304.664062 C 158.960938 301.867188 164.988281 299.625 171.148438 297.804688 C 176.328125 296.253906 181.605469 295.101562 186.902344 294.046875 C 197.054688 292.019531 207.515625 290.179688 216.917969 285.925781 C 218.78125 285.082031 220.566406 284.160156 222.292969 283.164062 C 229.277344 279.121094 235.113281 273.8125 239.566406 267.625 C 241.425781 265.019531 243.039062 262.242188 244.382812 259.269531 C 247.835938 251.664062 249.257812 243.234375 250.101562 234.496094 C 250.3125 232.292969 250.503906 230.070312 250.65625 227.847656 C 250.925781 224.359375 251.15625 220.871094 251.464844 217.382812 C 251.886719 212.25 252.382812 207.132812 253.074219 202.113281 C 253.476562 199.125 253.957031 196.152344 254.515625 193.242188 C 255.878906 186.09375 257.738281 179.0625 260.539062 172.488281 C 262.039062 169.003906 263.804688 165.667969 265.914062 162.527344 C 270.289062 155.972656 276.144531 150.589844 283.050781 146.640625 C 285.46875 145.261719 288.003906 144.054688 290.652344 143.039062 C 300.4375 139.28125 311.453125 138.074219 322.027344 139.878906 C 322.335938 139.933594 322.644531 139.992188 322.949219 140.050781 C 325.578125 140.546875 328.171875 141.21875 330.703125 142.0625 C 331.105469 142.195312 331.433594 142.042969 331.625 141.832031 C 331.914062 141.5625 331.894531 140.929688 331.335938 140.738281 Z M 331.335938 140.738281 " fill-opacity="1" fill-rule="nonzero"/><path fill="#000000" d="M 330.992188 150.011719 C 320.933594 146.5625 309.9375 146.449219 299.804688 149.171875 C 297.484375 149.800781 295.21875 150.570312 293.011719 151.488281 C 285.640625 154.535156 278.984375 159.171875 273.878906 165.171875 C 271.230469 168.292969 269.042969 171.683594 267.21875 175.304688 C 264.28125 181.167969 262.363281 187.550781 261.039062 193.96875 C 260.386719 197.113281 259.886719 200.292969 259.464844 203.511719 C 258.429688 211.386719 257.949219 219.433594 257.394531 227.5 C 257.277344 229.074219 257.164062 230.664062 257.046875 232.234375 C 256.320312 241.699219 255.320312 251.128906 252.097656 259.769531 C 251.234375 262.050781 250.234375 264.214844 249.082031 266.285156 C 244.878906 273.777344 238.855469 279.964844 231.390625 284.679688 C 229.96875 285.578125 228.511719 286.421875 227.03125 287.207031 C 222.582031 289.585938 217.800781 291.441406 212.871094 292.9375 C 207.9375 294.433594 202.890625 295.5625 197.882812 296.617188 C 192.757812 297.6875 187.574219 298.722656 182.472656 299.96875 C 176.40625 301.464844 170.4375 303.246094 164.640625 305.582031 C 163.375 306.082031 162.128906 306.617188 160.882812 307.175781 C 155.316406 309.664062 149.902344 312.75 145.222656 316.679688 C 142.667969 318.824219 140.347656 321.257812 138.292969 323.902344 C 137.027344 325.53125 135.875 327.234375 134.859375 329 C 133.09375 332.027344 131.652344 335.285156 130.65625 338.695312 C 128.851562 344.769531 128.371094 351.226562 129.695312 357.433594 C 129.8125 357.972656 129.945312 358.507812 130.078125 359.042969 C 130.710938 361.476562 131.613281 363.816406 132.765625 366 C 133.207031 366.824219 134.492188 366.132812 134.050781 365.308594 C 129.101562 356.113281 129.503906 344.882812 133.417969 335.304688 C 134.1875 333.40625 135.105469 331.546875 136.125 329.765625 C 137.8125 326.851562 139.828125 324.152344 142.113281 321.679688 C 146.066406 317.425781 150.824219 314.054688 155.910156 311.273438 C 157.332031 310.507812 158.769531 309.78125 160.226562 309.089844 C 165.753906 306.484375 171.550781 304.472656 177.460938 302.804688 C 182.355469 301.40625 187.34375 300.316406 192.296875 299.28125 C 201.988281 297.25 211.851562 295.332031 221.007812 291.617188 C 222.8125 290.886719 224.578125 290.082031 226.304688 289.21875 C 233.289062 285.734375 239.507812 281.113281 244.476562 275.441406 C 246.550781 273.066406 248.410156 270.480469 250.003906 267.683594 C 254.074219 260.535156 256.105469 252.429688 257.277344 244.074219 C 257.566406 241.96875 257.816406 239.859375 258.027344 237.734375 C 258.351562 234.417969 258.601562 231.085938 258.851562 227.75 C 259.214844 222.84375 259.542969 217.941406 259.964844 213.074219 C 260.214844 210.179688 260.519531 207.304688 260.867188 204.449219 C 261.75 197.476562 263.035156 190.519531 265.261719 183.910156 C 266.453125 180.421875 267.910156 177.03125 269.714844 173.792969 C 273.476562 167.066406 278.773438 161.433594 285.199219 157.21875 C 287.445312 155.742188 289.824219 154.441406 292.320312 153.328125 C 301.53125 149.226562 312.085938 147.695312 322.222656 149.304688 C 322.507812 149.34375 322.816406 149.398438 323.105469 149.457031 C 325.617188 149.898438 328.074219 150.550781 330.492188 151.375 C 330.894531 151.507812 331.203125 151.335938 331.355469 151.085938 C 331.585938 150.78125 331.527344 150.203125 330.992188 150.011719 Z M 330.992188 150.011719 " fill-opacity="1" fill-rule="nonzero"/><path fill="#000000" d="M 330.664062 159.304688 C 321.125 155.972656 310.570312 156.125 300.976562 159.210938 C 291.457031 162.257812 282.839844 168.140625 276.949219 176.226562 C 270.769531 184.714844 268.003906 195.082031 266.683594 205.351562 C 265.300781 216.101562 265.414062 226.984375 264.761719 237.792969 C 264.128906 248.234375 262.824219 258.945312 258.296875 268.507812 C 253.515625 278.585938 245.304688 286.058594 235.496094 291.195312 C 225.34375 296.5 214.136719 299.375 203.003906 301.828125 C 191.085938 304.472656 178.976562 306.847656 167.714844 311.714844 C 162.378906 314.015625 157.195312 316.890625 152.707031 320.605469 C 148.753906 323.882812 145.335938 327.847656 142.648438 332.21875 C 137.507812 340.589844 134.761719 351.054688 137.582031 360.691406 C 138.253906 362.992188 139.234375 365.195312 140.480469 367.226562 C 140.980469 368.03125 142.246094 367.300781 141.746094 366.476562 C 136.449219 357.777344 137.140625 347.105469 141.210938 338.0625 C 143.320312 333.347656 146.257812 329.019531 149.828125 325.28125 C 153.644531 321.277344 158.214844 318.132812 163.089844 315.546875 C 173.835938 309.855469 185.847656 307.097656 197.652344 304.511719 C 208.707031 302.078125 219.816406 299.703125 230.277344 295.273438 C 240.160156 291.078125 249.351562 284.984375 255.589844 276.09375 C 261.460938 267.703125 264.109375 257.679688 265.359375 247.640625 C 266.679688 237.042969 266.585938 226.351562 267.21875 215.71875 C 267.851562 205.332031 269.136719 194.679688 273.511719 185.117188 C 277.753906 175.804688 284.914062 168.371094 294.011719 163.695312 C 302.914062 159.113281 313.355469 157.257812 323.257812 158.941406 C 325.65625 159.34375 327.996094 159.957031 330.300781 160.761719 C 331.164062 161.03125 331.546875 159.613281 330.664062 159.304688 Z M 330.664062 159.304688 " fill-opacity="1" fill-rule="nonzero"/></svg>