<svg xmlns="http://www.w3.org/2000/svg" xmlns:xlink="http://www.w3.org/1999/xlink" width="1920" zoomAndPan="magnify" viewBox="0 0 1440 809.999993" height="1080" preserveAspectRatio="xMidYMid meet" version="1.0"><defs><g/></defs><g fill="#000000" fill-opacity="1"><g transform="translate(266.61389, 520.959917)"><g><path d="M 51.859375 0 L 26.5 0 L 26.5 -194.8125 L 106.4375 -194.8125 C 115.882812 -194.8125 124.546875 -193.234375 132.421875 -190.078125 C 140.304688 -186.929688 147.160156 -182.515625 152.984375 -176.828125 C 158.816406 -171.148438 163.304688 -164.421875 166.453125 -156.640625 C 169.609375 -148.859375 171.1875 -140.382812 171.1875 -131.21875 C 171.1875 -121.664062 169.609375 -112.945312 166.453125 -105.0625 C 163.304688 -97.1875 158.863281 -90.382812 153.125 -84.65625 C 147.394531 -78.925781 140.613281 -74.484375 132.78125 -71.328125 C 124.957031 -68.179688 116.363281 -66.609375 107 -66.609375 L 51.859375 -66.609375 Z M 51.859375 -172.046875 L 51.859375 -89.53125 L 105.859375 -89.53125 C 113.503906 -89.53125 120.332031 -91.34375 126.34375 -94.96875 C 132.363281 -98.601562 137.113281 -103.570312 140.59375 -109.875 C 144.082031 -116.175781 145.828125 -123.242188 145.828125 -131.078125 C 145.828125 -136.710938 144.820312 -141.988281 142.8125 -146.90625 C 140.8125 -151.820312 137.972656 -156.164062 134.296875 -159.9375 C 130.617188 -163.707031 126.34375 -166.664062 121.46875 -168.8125 C 116.601562 -170.96875 111.304688 -172.046875 105.578125 -172.046875 Z M 51.859375 -172.046875 "/></g></g></g><g fill="#000000" fill-opacity="1"><g transform="translate(443.662992, 520.959917)"><g><path d="M 35.8125 -174.625 C 30.75 -174.625 26.710938 -176.148438 23.703125 -179.203125 C 20.703125 -182.265625 19.203125 -185.988281 19.203125 -190.375 C 19.203125 -194.675781 20.703125 -198.351562 23.703125 -201.40625 C 26.710938 -204.46875 30.796875 -206 35.953125 -206 C 41.203125 -206 45.332031 -204.46875 48.34375 -201.40625 C 51.351562 -198.351562 52.859375 -194.675781 52.859375 -190.375 C 52.859375 -185.988281 51.351562 -182.265625 48.34375 -179.203125 C 45.332031 -176.148438 41.15625 -174.625 35.8125 -174.625 Z M 48.28125 0 L 23.640625 0 L 23.640625 -146.109375 L 48.28125 -146.109375 Z M 48.28125 0 "/></g></g></g><g fill="#000000" fill-opacity="1"><g transform="translate(515.590437, 520.959917)"><g><path d="M 112.3125 4.15625 C 100.851562 4.15625 89.960938 2.460938 79.640625 -0.921875 C 69.328125 -4.316406 59.894531 -9.117188 51.34375 -15.328125 C 42.800781 -21.535156 35.398438 -28.890625 29.140625 -37.390625 C 22.890625 -45.890625 18.046875 -55.25 14.609375 -65.46875 C 11.171875 -75.6875 9.453125 -86.429688 9.453125 -97.703125 C 9.453125 -109.066406 11.171875 -119.832031 14.609375 -130 C 18.046875 -140.164062 22.890625 -149.472656 29.140625 -157.921875 C 35.398438 -166.378906 42.800781 -173.710938 51.34375 -179.921875 C 59.894531 -186.128906 69.328125 -190.925781 79.640625 -194.3125 C 89.960938 -197.707031 100.851562 -199.40625 112.3125 -199.40625 C 122.625 -199.40625 132.835938 -197.875 142.953125 -194.8125 C 153.078125 -191.757812 162.53125 -187.101562 171.3125 -180.84375 C 180.101562 -174.59375 187.554688 -166.691406 193.671875 -157.140625 C 199.785156 -147.585938 203.988281 -136.320312 206.28125 -123.34375 L 169.890625 -123.34375 C 167.316406 -133.363281 163.1875 -141.570312 157.5 -147.96875 C 151.820312 -154.375 145.019531 -159.101562 137.09375 -162.15625 C 129.164062 -165.21875 120.570312 -166.75 111.3125 -166.75 C 102.132812 -166.75 93.535156 -165.097656 85.515625 -161.796875 C 77.492188 -158.503906 70.453125 -153.800781 64.390625 -147.6875 C 58.328125 -141.570312 53.597656 -134.289062 50.203125 -125.84375 C 46.816406 -117.394531 45.125 -107.960938 45.125 -97.546875 C 45.125 -86.953125 46.816406 -77.425781 50.203125 -68.96875 C 53.597656 -60.519531 58.328125 -53.285156 64.390625 -47.265625 C 70.453125 -41.253906 77.492188 -36.648438 85.515625 -33.453125 C 93.535156 -30.253906 102.132812 -28.65625 111.3125 -28.65625 C 120.570312 -28.65625 129.140625 -30.179688 137.015625 -33.234375 C 144.898438 -36.285156 151.707031 -41.007812 157.4375 -47.40625 C 163.164062 -53.8125 167.269531 -61.976562 169.75 -71.90625 L 206.28125 -71.90625 C 203.988281 -58.914062 199.785156 -47.625 193.671875 -38.03125 C 187.554688 -28.4375 180.15625 -20.535156 171.46875 -14.328125 C 162.78125 -8.117188 153.347656 -3.484375 143.171875 -0.421875 C 133.003906 2.628906 122.71875 4.15625 112.3125 4.15625 Z M 112.3125 4.15625 "/></g></g></g><g fill="#000000" fill-opacity="1"><g transform="translate(731.458557, 520.959917)"><g><path d="M 197.25 0 L 159.578125 0 L 144.109375 -37.671875 L 54.4375 -37.671875 L 38.96875 0 L 1.296875 0 L 82.375 -194.96875 L 116.171875 -194.96875 Z M 97.984375 -144.25 L 66.609375 -67.46875 L 131.9375 -67.46875 L 100.421875 -144.25 L 99.5625 -148.984375 L 99.125 -148.984375 Z M 97.984375 -144.25 "/></g></g></g><g fill="#000000" fill-opacity="1"><g transform="translate(930.137443, 520.959917)"><g><path d="M 58.875 0 L 23.203125 0 L 23.203125 -194.8125 L 54.296875 -194.8125 L 121.46875 -104 L 189.09375 -194.8125 L 220.171875 -194.8125 L 220.171875 0 L 184.5 0 L 184.5 -137.65625 L 126.203125 -58.015625 L 116.609375 -58.015625 L 58.875 -137.953125 Z M 58.875 0 "/></g></g></g></svg>