<svg xmlns="http://www.w3.org/2000/svg" xmlns:xlink="http://www.w3.org/1999/xlink" width="500" zoomAndPan="magnify" viewBox="0 0 375 374.999991" height="500" preserveAspectRatio="xMidYMid meet" version="1.0"><path fill="#ffffff" d="M 335.484375 20.054688 C 314.527344 14.089844 293.105469 9.179688 271.285156 7.894531 C 250.917969 6.6875 229.75 8.699219 210.78125 16.660156 C 195.230469 23.199219 181.136719 33.589844 170.648438 46.824219 C 160.542969 59.59375 153.828125 75.203125 153.523438 91.617188 C 153.140625 112.097656 163.074219 130.546875 169.824219 149.300781 C 175.710938 165.636719 179.46875 185.582031 170.78125 201.671875 C 166.601562 209.398438 159.660156 214.996094 151.585938 218.277344 C 143.53125 221.535156 134.789062 222.785156 126.214844 223.855469 C 117.472656 224.949219 108.652344 225.8125 100.117188 228.09375 C 89.992188 230.800781 80.441406 235.324219 71.332031 240.425781 C 55.722656 249.132812 39.617188 259.640625 30.179688 275.269531 C 25.253906 283.4375 22.933594 292.605469 22.683594 302.117188 C 22.394531 312.777344 24.238281 323.324219 24.964844 333.929688 C 25.3125 339.066406 25.367188 344.246094 24.851562 349.386719 C 24.753906 350.324219 26.210938 350.304688 26.308594 349.386719 C 28.4375 328.636719 20.132812 307.292969 26.5 286.910156 C 31.984375 269.304688 47.171875 256.898438 62.246094 247.484375 C 70.949219 242.035156 80.058594 236.972656 89.609375 233.15625 C 98.507812 229.609375 107.691406 227.691406 117.164062 226.464844 C 133.175781 224.375 151.355469 223.589844 164.109375 212.390625 C 177.109375 200.960938 178.875 182.570312 176.054688 166.464844 C 172.621094 146.847656 161.960938 129.472656 157.203125 110.238281 C 155 101.28125 154.269531 92.058594 155.726562 82.929688 C 157.03125 74.78125 159.851562 66.917969 163.820312 59.691406 C 171.988281 44.828125 184.703125 32.632812 199.277344 24.097656 C 216.191406 14.183594 235.65625 9.851562 255.136719 9.199219 C 276.902344 8.449219 298.570312 12.132812 319.628906 17.386719 C 324.804688 18.671875 329.945312 20.070312 335.0625 21.527344 C 336.003906 21.742188 336.386719 20.320312 335.484375 20.054688 Z M 335.484375 20.054688 " fill-opacity="1" fill-rule="nonzero"/><path fill="#ffffff" d="M 335.140625 29.351562 C 318.589844 24.597656 301.660156 20.722656 284.574219 19 C 280.660156 18.59375 276.75 18.328125 272.816406 18.171875 C 259.835938 17.65625 246.566406 18.558594 233.890625 21.546875 C 227.332031 23.101562 220.925781 25.230469 214.789062 28.011719 C 204.875 32.5 195.632812 38.671875 187.65625 46.171875 C 183.765625 49.8125 180.179688 53.785156 176.976562 58.039062 C 169.035156 68.53125 163.359375 80.859375 161.519531 93.957031 C 161.15625 96.507812 160.945312 99.078125 160.886719 101.6875 C 160.542969 117.410156 166.199219 131.964844 171.492188 146.347656 C 172.871094 150.125 174.234375 153.902344 175.460938 157.679688 C 179.757812 170.949219 182.515625 186.464844 178.125 200.15625 C 177.28125 202.78125 176.1875 205.332031 174.789062 207.808594 C 170.589844 215.152344 163.800781 220.480469 155.957031 223.628906 C 148.113281 226.773438 139.660156 228 131.335938 229.074219 C 122.859375 230.167969 114.289062 231.027344 106.003906 233.234375 C 96.167969 235.84375 86.886719 240.195312 78.007812 245.085938 C 76.070312 246.140625 74.132812 247.234375 72.214844 248.363281 C 63.644531 253.371094 55.207031 259.066406 48.128906 266.027344 C 44.238281 269.859375 40.765625 274.0625 37.910156 278.738281 C 36.144531 281.636719 34.707031 284.664062 33.574219 287.789062 C 31.640625 293.199219 30.621094 298.894531 30.390625 304.722656 C 30.007812 315.058594 31.675781 325.320312 32.445312 335.597656 C 32.5 336.5 32.578125 337.398438 32.617188 338.300781 C 32.847656 342.386719 32.847656 346.46875 32.558594 350.554688 C 32.5 351.476562 33.941406 351.417969 34.015625 350.496094 C 35.1875 333.757812 30.257812 316.515625 32.234375 299.832031 C 32.617188 296.515625 33.289062 293.21875 34.34375 289.957031 C 36.050781 284.625 38.675781 279.792969 41.917969 275.382812 C 47.480469 267.828125 54.863281 261.539062 62.648438 256.167969 C 64.832031 254.65625 67.058594 253.234375 69.261719 251.855469 C 77.757812 246.621094 86.617188 241.769531 95.917969 238.105469 C 104.527344 234.710938 113.40625 232.851562 122.554688 231.625 C 138.125 229.550781 155.691406 228.671875 168.191406 218.007812 C 170.6875 215.878906 172.777344 213.503906 174.5 210.933594 C 181.617188 200.367188 182.710938 186.636719 180.964844 174.191406 C 180.214844 168.898438 178.914062 163.757812 177.339844 158.675781 C 173.3125 145.695312 167.464844 133.171875 164.375 119.730469 C 163.589844 116.335938 163.035156 112.902344 162.6875 109.453125 C 162.171875 104.0625 162.265625 98.617188 163.109375 93.210938 C 164.339844 85.289062 166.984375 77.640625 170.703125 70.582031 C 172.929688 66.382812 175.5 62.375 178.355469 58.617188 C 185.394531 49.390625 194.234375 41.550781 203.996094 35.433594 C 209.210938 32.171875 214.714844 29.46875 220.390625 27.28125 C 232.105469 22.757812 244.648438 20.398438 257.265625 19.6875 C 261.695312 19.4375 266.144531 19.382812 270.59375 19.496094 C 287.144531 19.9375 303.671875 22.757812 319.800781 26.726562 C 320.261719 26.839844 320.738281 26.957031 321.199219 27.070312 C 325.207031 28.070312 329.195312 29.160156 333.183594 30.292969 C 333.722656 30.445312 334.257812 30.582031 334.796875 30.714844 C 335.675781 30.964844 336.023438 29.601562 335.140625 29.351562 Z M 335.140625 29.351562 " fill-opacity="1" fill-rule="nonzero"/><path fill="#ffffff" d="M 334.816406 38.632812 C 318.765625 33.976562 302.292969 30.390625 285.722656 29.007812 C 281.945312 28.703125 278.148438 28.492188 274.351562 28.414062 C 261.792969 28.164062 249.039062 29.351562 236.957031 32.59375 C 230.6875 34.28125 224.628906 36.488281 218.816406 39.34375 C 209.441406 43.945312 200.753906 50.121094 193.292969 57.542969 C 189.652344 61.148438 186.3125 65.058594 183.304688 69.238281 C 175.902344 79.519531 170.628906 91.542969 168.882812 104.234375 C 168.539062 106.710938 168.347656 109.222656 168.269531 111.734375 C 167.90625 126.980469 173.042969 141.132812 177.664062 155.089844 C 178.875 158.753906 180.0625 162.398438 181.097656 166.042969 C 184.742188 178.851562 186.8125 193.675781 182.191406 206.675781 C 181.308594 209.167969 180.179688 211.585938 178.757812 213.925781 C 174.539062 220.902344 167.90625 225.949219 160.273438 228.976562 C 152.660156 231.988281 144.453125 233.214844 136.398438 234.289062 C 128.171875 235.382812 119.867188 236.265625 111.832031 238.394531 C 102.285156 240.925781 93.253906 245.066406 84.621094 249.765625 C 82.742188 250.78125 80.863281 251.835938 78.984375 252.910156 C 70.644531 257.722656 62.4375 263.207031 55.550781 269.957031 C 51.773438 273.65625 48.378906 277.722656 45.582031 282.25 C 43.855469 285.046875 42.433594 287.984375 41.324219 290.992188 C 39.40625 296.210938 38.351562 301.730469 38.0625 307.371094 C 37.5625 317.359375 39.078125 327.332031 39.882812 337.324219 C 39.960938 338.203125 40.019531 339.066406 40.078125 339.949219 C 40.324219 343.917969 40.363281 347.871094 40.230469 351.78125 C 40.191406 352.703125 41.628906 352.585938 41.667969 351.6875 C 42.242188 335.519531 37.851562 318.742188 39.960938 302.59375 C 40.382812 299.390625 41.074219 296.210938 42.128906 293.046875 C 43.835938 287.90625 46.425781 283.226562 49.589844 278.96875 C 55.015625 271.664062 62.207031 265.605469 69.78125 260.425781 C 71.910156 258.96875 74.058594 257.589844 76.222656 256.285156 C 84.488281 251.242188 93.117188 246.621094 102.148438 243.109375 C 110.472656 239.871094 119.0625 238.066406 127.882812 236.859375 C 142.996094 234.789062 159.984375 233.828125 172.21875 223.703125 C 174.65625 221.691406 176.726562 219.425781 178.453125 216.992188 C 185.566406 206.980469 187.042969 193.941406 185.816406 182.015625 C 185.277344 176.953125 184.222656 172.003906 182.902344 167.097656 C 179.507812 154.574219 174.253906 142.378906 171.492188 129.339844 C 170.800781 126.039062 170.28125 122.703125 169.996094 119.367188 C 169.554688 114.132812 169.648438 108.859375 170.4375 103.601562 C 171.605469 95.914062 174.078125 88.472656 177.53125 81.589844 C 179.601562 77.484375 182 73.574219 184.664062 69.890625 C 191.242188 60.839844 199.488281 53.054688 208.671875 46.917969 C 213.582031 43.640625 218.761719 40.878906 224.167969 38.617188 C 235.269531 33.917969 247.257812 31.308594 259.394531 30.332031 C 263.671875 29.984375 267.949219 29.832031 272.242188 29.851562 C 288.214844 29.949219 304.285156 32.421875 319.953125 36.21875 C 320.414062 36.332031 320.855469 36.449219 321.316406 36.542969 C 325.207031 37.503906 329.082031 38.558594 332.933594 39.671875 C 333.472656 39.824219 333.988281 39.9375 334.488281 40.035156 C 335.332031 40.167969 335.660156 38.882812 334.816406 38.632812 Z M 334.816406 38.632812 " fill-opacity="1" fill-rule="nonzero"/><path fill="#ffffff" d="M 334.46875 47.933594 C 318.917969 43.371094 302.90625 40.074219 286.875 39.039062 C 283.210938 38.808594 279.550781 38.671875 275.886719 38.691406 C 263.765625 38.730469 251.511719 40.1875 240.007812 43.660156 C 234.042969 45.460938 228.289062 47.78125 222.824219 50.695312 C 213.984375 55.394531 205.875 61.589844 198.914062 68.933594 C 195.519531 72.5 192.414062 76.355469 189.632812 80.457031 C 182.765625 90.542969 177.875 102.222656 176.246094 114.554688 C 175.921875 116.949219 175.730469 119.386719 175.671875 121.820312 C 175.269531 136.585938 179.910156 150.355469 183.878906 163.855469 C 184.914062 167.402344 185.910156 170.929688 186.773438 174.441406 C 189.765625 186.808594 191.164062 200.902344 186.3125 213.214844 C 185.394531 215.574219 184.222656 217.875 182.804688 220.078125 C 178.566406 226.675781 172.085938 231.453125 164.683594 234.347656 C 157.300781 237.222656 149.363281 238.449219 141.539062 239.523438 C 133.578125 240.617188 125.527344 241.5 117.738281 243.570312 C 108.476562 246.007812 99.714844 249.957031 91.296875 254.460938 C 89.472656 255.441406 87.632812 256.4375 85.8125 257.492188 C 77.699219 262.113281 69.722656 267.40625 63.03125 273.90625 C 59.347656 277.472656 56.050781 281.40625 53.328125 285.777344 C 51.640625 288.480469 50.238281 291.300781 49.148438 294.214844 C 47.230469 299.257812 46.15625 304.570312 45.808594 310.035156 C 45.195312 319.699219 46.558594 329.382812 47.402344 339.050781 C 47.480469 339.894531 47.535156 340.738281 47.613281 341.597656 C 47.902344 345.433594 47.976562 349.25 47.976562 353.027344 C 47.976562 353.929688 49.394531 353.796875 49.394531 352.875 C 49.378906 337.285156 45.523438 320.984375 47.785156 305.375 C 48.246094 302.269531 48.9375 299.199219 49.992188 296.152344 C 51.699219 291.203125 54.230469 286.679688 57.316406 282.574219 C 62.628906 275.519531 69.609375 269.6875 76.972656 264.722656 C 79.042969 263.320312 81.132812 262 83.242188 260.734375 C 91.277344 255.902344 99.65625 251.492188 108.441406 248.132812 C 116.472656 245.046875 124.757812 243.300781 133.253906 242.113281 C 147.921875 240.042969 164.300781 239.007812 176.285156 229.398438 C 178.664062 227.480469 180.714844 225.351562 182.441406 223.050781 C 189.535156 213.578125 191.414062 201.25 190.707031 189.839844 C 190.398438 184.988281 189.574219 180.25 188.5 175.515625 C 185.71875 163.433594 181.078125 151.582031 178.644531 138.925781 C 178.03125 135.722656 177.589844 132.503906 177.339844 129.242188 C 176.957031 124.160156 177.070312 119.039062 177.820312 113.957031 C 178.914062 106.5 181.214844 99.269531 184.414062 92.539062 C 186.332031 88.53125 188.558594 84.714844 191.03125 81.089844 C 197.128906 72.210938 204.800781 64.503906 213.410156 58.308594 C 218.011719 55.011719 222.882812 52.210938 227.984375 49.851562 C 238.472656 44.980469 249.902344 42.125 261.582031 40.878906 C 265.683594 40.4375 269.808594 40.1875 273.949219 40.109375 C 289.367188 39.84375 304.976562 42.007812 320.183594 45.613281 C 320.625 45.710938 321.066406 45.824219 321.507812 45.941406 C 325.285156 46.859375 329.042969 47.878906 332.78125 48.953125 C 333.300781 49.105469 333.796875 49.179688 334.277344 49.257812 C 335.007812 49.390625 335.292969 48.183594 334.46875 47.933594 Z M 334.46875 47.933594 " fill-opacity="1" fill-rule="nonzero"/><path fill="#ffffff" d="M 334.144531 57.214844 C 319.089844 52.75 303.539062 49.757812 288.042969 49.046875 C 284.496094 48.894531 280.96875 48.855469 277.441406 48.933594 C 265.742188 49.238281 254.023438 50.984375 243.09375 54.683594 C 237.4375 56.601562 232.011719 59.019531 226.871094 61.992188 C 218.570312 66.804688 211.011719 73.015625 204.570312 80.265625 C 201.425781 83.792969 198.546875 87.589844 195.980469 91.597656 C 189.632812 101.492188 185.164062 112.828125 183.609375 124.773438 C 183.304688 127.09375 183.113281 129.453125 183.054688 131.8125 C 182.632812 146.097656 186.734375 159.464844 190.054688 172.523438 C 190.917969 175.957031 191.742188 179.347656 192.414062 182.742188 C 194.769531 194.671875 195.480469 208.054688 190.378906 219.675781 C 189.402344 221.902344 188.230469 224.066406 186.792969 226.140625 C 182.535156 232.351562 176.207031 236.878906 169.035156 239.640625 C 161.863281 242.402344 154.195312 243.609375 146.636719 244.683594 C 138.929688 245.777344 131.144531 246.675781 123.609375 248.671875 C 114.652344 251.03125 106.121094 254.789062 97.949219 259.085938 C 96.167969 260.023438 94.402344 260.984375 92.621094 261.980469 C 84.738281 266.410156 77.011719 271.492188 70.488281 277.761719 C 66.902344 281.195312 63.703125 285.011719 61.035156 289.210938 C 59.386719 291.816406 58.027344 294.539062 56.914062 297.359375 C 55.015625 302.210938 53.902344 307.351562 53.5 312.625 C 52.789062 321.960938 53.960938 331.359375 54.84375 340.699219 C 54.917969 341.523438 54.996094 342.347656 55.074219 343.152344 C 55.398438 346.855469 55.511719 350.554688 55.648438 354.179688 C 55.6875 355.082031 57.085938 354.886719 57.066406 353.988281 C 56.492188 338.992188 53.117188 323.132812 55.550781 308.078125 C 56.03125 305.085938 56.761719 302.117188 57.796875 299.199219 C 59.503906 294.425781 61.976562 290.09375 65.003906 286.121094 C 70.183594 279.335938 76.972656 273.714844 84.125 268.941406 C 86.136719 267.597656 88.171875 266.332031 90.203125 265.125 C 98.007812 260.484375 106.15625 256.304688 114.671875 253.101562 C 122.417969 250.167969 130.414062 248.480469 138.585938 247.308594 C 152.792969 245.238281 168.59375 244.125 180.3125 235.054688 C 182.652344 233.253906 184.664062 231.242188 186.390625 229.074219 C 193.484375 220.136719 195.75 208.515625 195.558594 197.625 C 195.460938 193.003906 194.886719 188.457031 194.042969 183.894531 C 191.894531 172.253906 187.847656 160.769531 185.738281 148.496094 C 185.203125 145.40625 184.820312 142.261719 184.625 139.117188 C 184.300781 134.207031 184.433594 129.242188 185.144531 124.3125 C 186.179688 117.085938 188.289062 110.066406 191.242188 103.507812 C 193.007812 99.613281 195.058594 95.875 197.339844 92.308594 C 202.960938 83.601562 210.054688 75.953125 218.089844 69.738281 C 222.382812 66.421875 226.949219 63.5625 231.742188 61.128906 C 241.617188 56.105469 252.492188 52.976562 263.691406 51.464844 C 267.621094 50.925781 271.589844 50.582031 275.578125 50.429688 C 290.421875 49.8125 305.570312 51.636719 320.316406 55.050781 C 320.738281 55.144531 321.179688 55.242188 321.601562 55.355469 C 325.265625 56.238281 328.910156 57.214844 332.53125 58.269531 C 333.050781 58.425781 333.53125 58.480469 333.972656 58.519531 C 334.679688 58.617188 334.929688 57.464844 334.144531 57.214844 Z M 334.144531 57.214844 " fill-opacity="1" fill-rule="nonzero"/><path fill="#ffffff" d="M 333.796875 66.515625 C 319.242188 62.164062 304.152344 59.441406 289.195312 59.078125 C 285.78125 59 282.367188 59.039062 278.972656 59.210938 C 267.71875 59.785156 256.5 61.835938 246.144531 65.769531 C 240.773438 67.800781 235.671875 70.332031 230.878906 73.363281 C 223.113281 78.273438 216.113281 84.503906 210.1875 91.675781 C 207.292969 95.164062 204.664062 98.90625 202.308594 102.835938 C 196.496094 112.519531 192.414062 123.546875 190.972656 135.089844 C 190.6875 137.335938 190.515625 139.617188 190.4375 141.898438 C 189.976562 155.707031 193.582031 168.6875 196.246094 181.304688 C 196.9375 184.621094 197.589844 187.902344 198.070312 191.144531 C 199.777344 202.628906 199.796875 215.285156 194.484375 226.214844 C 193.46875 228.304688 192.257812 230.339844 190.820312 232.292969 C 186.542969 238.125 180.390625 242.382812 173.429688 245.007812 C 166.484375 247.636719 159.085938 248.84375 151.777344 249.917969 C 144.335938 251.011719 136.820312 251.929688 129.496094 253.828125 C 120.828125 256.09375 112.5625 259.660156 104.625 263.761719 C 102.898438 264.664062 101.171875 265.566406 99.445312 266.523438 C 91.792969 270.761719 84.296875 275.652344 77.96875 281.691406 C 74.496094 285.011719 71.371094 288.671875 68.765625 292.71875 C 67.152344 295.230469 65.8125 297.859375 64.71875 300.5625 C 62.839844 305.242188 61.6875 310.1875 61.226562 315.269531 C 60.402344 324.28125 61.417969 333.371094 62.339844 342.425781 C 62.417969 343.210938 62.492188 344.015625 62.570312 344.800781 C 62.914062 348.386719 63.105469 351.933594 63.355469 355.425781 C 63.414062 356.328125 64.8125 356.078125 64.757812 355.175781 C 63.644531 340.773438 60.75 325.355469 63.316406 310.859375 C 63.835938 307.984375 64.566406 305.125 65.621094 302.308594 C 67.324219 297.722656 69.761719 293.542969 72.714844 289.726562 C 77.777344 283.1875 84.355469 277.800781 91.296875 273.21875 C 93.253906 271.933594 95.226562 270.722656 97.203125 269.554688 C 104.777344 265.125 112.695312 261.136719 120.941406 258.105469 C 128.402344 255.324219 136.089844 253.695312 143.953125 252.546875 C 157.703125 250.472656 172.910156 249.285156 184.378906 240.75 C 186.660156 239.046875 188.632812 237.164062 190.378906 235.113281 C 197.457031 226.734375 200.121094 215.804688 200.445312 205.429688 C 200.5625 201.039062 200.234375 196.664062 199.640625 192.292969 C 198.109375 181.113281 194.675781 169.953125 192.910156 158.0625 C 192.46875 155.074219 192.144531 152.042969 191.972656 148.992188 C 191.722656 144.238281 191.855469 139.445312 192.507812 134.667969 C 193.46875 127.667969 195.402344 120.863281 198.109375 114.476562 C 199.71875 110.679688 201.597656 107.015625 203.6875 103.546875 C 208.828125 95.011719 215.347656 87.4375 222.789062 81.167969 C 226.777344 77.832031 231.015625 74.914062 235.519531 72.402344 C 244.78125 67.207031 255.097656 63.832031 265.820312 62.046875 C 269.578125 61.414062 273.394531 60.976562 277.230469 60.726562 C 291.515625 59.765625 306.203125 61.242188 320.488281 64.484375 C 320.910156 64.578125 321.316406 64.675781 321.738281 64.773438 C 325.285156 65.597656 328.8125 66.554688 332.300781 67.589844 C 332.800781 67.742188 333.261719 67.761719 333.683594 67.78125 C 334.335938 67.839844 334.566406 66.746094 333.796875 66.515625 Z M 333.796875 66.515625 " fill-opacity="1" fill-rule="nonzero"/><path fill="#ffffff" d="M 333.453125 75.796875 C 319.398438 71.539062 304.765625 69.105469 290.34375 69.105469 C 287.046875 69.105469 283.769531 69.21875 280.507812 69.488281 C 269.691406 70.351562 258.972656 72.671875 249.191406 76.832031 C 244.128906 79 239.355469 81.609375 234.886719 84.714844 C 227.65625 89.738281 221.234375 95.992188 215.808594 103.066406 C 213.160156 106.519531 210.765625 110.199219 208.617188 114.054688 C 203.34375 123.546875 199.660156 134.226562 198.300781 145.386719 C 198.03125 147.554688 197.859375 149.761719 197.78125 151.964844 C 197.300781 165.292969 200.390625 177.871094 202.402344 190.050781 C 202.921875 193.253906 203.398438 196.417969 203.6875 199.523438 C 204.761719 210.566406 204.089844 222.515625 198.53125 232.753906 C 197.476562 234.710938 196.226562 236.609375 194.789062 238.429688 C 190.496094 243.878906 184.492188 247.867188 177.761719 250.378906 C 171.050781 252.890625 163.898438 254.078125 156.839844 255.152344 C 149.648438 256.246094 142.402344 257.167969 135.324219 259.007812 C 126.945312 261.195312 118.929688 264.550781 111.238281 268.460938 C 109.570312 269.304688 107.882812 270.1875 106.234375 271.089844 C 98.832031 275.132812 91.546875 279.8125 85.390625 285.625 C 82.015625 288.808594 78.984375 292.335938 76.433594 296.226562 C 74.863281 298.644531 73.539062 301.15625 72.445312 303.765625 C 70.566406 308.25 69.398438 313.027344 68.878906 317.917969 C 67.941406 326.605469 68.800781 335.40625 69.761719 344.128906 C 69.839844 344.898438 69.933594 345.664062 70.011719 346.414062 C 70.394531 349.863281 70.625 353.296875 71.007812 356.613281 C 71.105469 357.496094 72.503906 357.207031 72.386719 356.328125 C 70.777344 342.519531 68.324219 327.5625 71.046875 313.601562 C 71.582031 310.820312 72.351562 308.078125 73.386719 305.394531 C 75.09375 301.003906 77.46875 296.976562 80.347656 293.3125 C 85.273438 287.023438 91.660156 281.867188 98.390625 277.492188 C 100.289062 276.265625 102.207031 275.097656 104.125 274.003906 C 111.46875 269.765625 119.160156 266.007812 127.136719 263.109375 C 134.308594 260.484375 141.691406 258.910156 149.226562 257.761719 C 162.535156 255.691406 177.148438 254.425781 188.347656 246.429688 C 190.570312 244.835938 192.527344 243.070312 194.273438 241.15625 C 201.328125 233.3125 204.398438 223.089844 205.242188 213.234375 C 205.585938 209.054688 205.492188 204.890625 205.144531 200.691406 C 204.242188 189.953125 201.40625 179.136719 199.96875 167.652344 C 199.601562 164.757812 199.335938 161.824219 199.21875 158.886719 C 199.027344 154.285156 199.179688 149.664062 199.796875 145.042969 C 200.695312 138.273438 202.441406 131.675781 204.894531 125.464844 C 206.351562 121.761719 208.058594 118.195312 209.957031 114.78125 C 214.636719 106.421875 220.5625 98.90625 227.429688 92.617188 C 231.089844 89.257812 235.039062 86.289062 239.242188 83.699219 C 247.890625 78.328125 257.648438 74.703125 267.890625 72.652344 C 271.476562 71.925781 275.136719 71.40625 278.820312 71.042969 C 292.550781 69.738281 306.777344 70.871094 320.585938 73.9375 C 320.988281 74.035156 321.390625 74.109375 321.792969 74.207031 C 325.226562 74.992188 328.640625 75.914062 332.015625 76.929688 C 332.496094 77.082031 332.953125 77.0625 333.339844 77.082031 C 334.007812 77.101562 334.199219 76.027344 333.453125 75.796875 Z M 333.453125 75.796875 " fill-opacity="1" fill-rule="nonzero"/><path fill="#ffffff" d="M 333.128906 85.097656 C 319.570312 80.9375 305.398438 78.808594 291.515625 79.132812 C 288.351562 79.210938 285.1875 79.421875 282.0625 79.75 C 271.667969 80.878906 261.464844 83.488281 252.28125 87.878906 C 247.523438 90.160156 243.054688 92.882812 238.933594 96.046875 C 232.242188 101.167969 226.375 107.4375 221.464844 114.4375 C 219.066406 117.851562 216.898438 121.476562 214.984375 125.234375 C 210.226562 134.515625 206.949219 144.890625 205.703125 155.667969 C 205.453125 157.777344 205.296875 159.886719 205.203125 162.015625 C 204.683594 174.863281 207.273438 187.039062 208.617188 198.773438 C 208.960938 201.863281 209.25 204.890625 209.363281 207.882812 C 209.785156 218.488281 208.445312 229.707031 202.632812 239.257812 C 201.519531 241.078125 200.253906 242.84375 198.816406 244.546875 C 194.503906 249.609375 188.652344 253.332031 182.132812 255.710938 C 175.632812 258.085938 168.75 259.277344 161.960938 260.351562 C 155.019531 261.441406 148.039062 262.382812 141.210938 264.148438 C 133.121094 266.238281 125.371094 269.402344 117.914062 273.121094 C 116.28125 273.925781 114.671875 274.769531 113.0625 275.632812 C 105.890625 279.488281 98.832031 283.976562 92.867188 289.535156 C 89.589844 292.585938 86.65625 295.980469 84.164062 299.71875 C 82.628906 302.039062 81.324219 304.453125 80.25 306.949219 C 78.390625 311.242188 77.183594 315.828125 76.605469 320.542969 C 75.570312 328.90625 76.242188 337.417969 77.257812 345.835938 C 77.355469 346.566406 77.433594 347.3125 77.527344 348.042969 C 77.949219 351.359375 78.238281 354.660156 78.734375 357.839844 C 78.871094 358.722656 80.25 358.378906 80.097656 357.496094 C 77.988281 344.285156 75.972656 329.765625 78.851562 316.34375 C 79.425781 313.679688 80.191406 311.050781 81.246094 308.460938 C 82.953125 304.242188 85.292969 300.390625 88.09375 296.878906 C 92.90625 290.839844 99.082031 285.890625 105.621094 281.730469 C 107.441406 280.5625 109.300781 279.449219 111.164062 278.394531 C 118.277344 274.367188 125.738281 270.820312 133.445312 268.078125 C 140.347656 265.605469 147.425781 264.089844 154.636719 262.957031 C 167.484375 260.90625 181.5 259.542969 192.449219 252.085938 C 194.617188 250.609375 196.554688 248.960938 198.28125 247.175781 C 205.335938 239.871094 208.789062 230.359375 210.132812 221.039062 C 210.6875 217.089844 210.839844 213.117188 210.726562 209.089844 C 210.4375 198.792969 208.214844 188.324219 207.101562 177.222656 C 206.8125 174.421875 206.621094 171.601562 206.546875 168.765625 C 206.429688 164.335938 206.582031 159.847656 207.160156 155.398438 C 207.984375 148.859375 209.554688 142.472656 211.761719 136.433594 C 213.066406 132.828125 214.597656 129.355469 216.304688 126 C 220.503906 117.8125 225.855469 110.371094 232.144531 104.023438 C 235.5 100.648438 239.125 97.640625 243.039062 94.953125 C 251.070312 89.414062 260.277344 85.539062 270.039062 83.21875 C 273.46875 82.414062 276.960938 81.78125 280.507812 81.320312 C 293.664062 79.671875 307.429688 80.476562 320.777344 83.351562 C 321.160156 83.429688 321.542969 83.527344 321.949219 83.601562 C 325.265625 84.351562 328.5625 85.234375 331.804688 86.230469 C 332.285156 86.382812 332.707031 86.363281 333.070312 86.324219 C 333.664062 86.289062 333.835938 85.308594 333.128906 85.097656 Z M 333.128906 85.097656 " fill-opacity="1" fill-rule="nonzero"/><path fill="#ffffff" d="M 332.78125 94.378906 C 319.742188 90.332031 305.992188 88.472656 292.664062 89.144531 C 289.617188 89.296875 286.585938 89.585938 283.59375 90.007812 C 273.644531 91.40625 263.941406 94.320312 255.328125 98.945312 C 250.859375 101.339844 246.738281 104.160156 242.941406 107.382812 C 236.785156 112.617188 231.492188 118.886719 227.082031 125.828125 C 224.933594 129.203125 223.015625 132.75 221.292969 136.453125 C 217.074219 145.542969 214.195312 155.570312 213.046875 165.964844 C 212.816406 167.996094 212.664062 170.03125 212.566406 172.082031 C 212.03125 184.449219 214.082031 196.242188 214.789062 207.539062 C 214.964844 210.511719 215.078125 213.425781 215 216.28125 C 214.773438 226.445312 212.757812 236.9375 206.71875 245.796875 C 205.566406 247.484375 204.28125 249.132812 202.824219 250.683594 C 198.492188 255.363281 192.796875 258.816406 186.507812 261.078125 C 180.234375 263.320312 173.621094 264.511719 167.082031 265.566406 C 160.40625 266.660156 153.675781 267.597656 147.097656 269.304688 C 139.292969 271.320312 131.796875 274.289062 124.585938 277.800781 C 123.011719 278.566406 121.441406 279.351562 119.886719 280.179688 C 112.945312 283.839844 106.136719 288.117188 100.347656 293.449219 C 97.183594 296.382812 94.324219 299.621094 91.910156 303.207031 C 90.414062 305.433594 89.128906 307.734375 88.054688 310.132812 C 86.214844 314.253906 84.96875 318.644531 84.335938 323.171875 C 83.183594 331.207031 83.703125 339.414062 84.757812 347.523438 C 84.851562 348.234375 84.949219 348.945312 85.042969 349.652344 C 85.484375 352.855469 85.851562 356.019531 86.464844 359.050781 C 86.636719 359.933594 87.996094 359.527344 87.824219 358.648438 C 85.253906 346.027344 83.644531 331.953125 86.65625 319.085938 C 87.25 316.535156 88.054688 314.003906 89.089844 311.550781 C 90.796875 307.523438 93.078125 303.839844 95.800781 300.464844 C 100.5 294.675781 106.464844 289.957031 112.792969 285.988281 C 114.558594 284.875 116.359375 283.820312 118.160156 282.824219 C 125.066406 279.007812 132.257812 275.671875 139.734375 273.082031 C 146.351562 270.761719 153.121094 269.304688 160.023438 268.191406 C 172.429688 266.140625 185.835938 264.703125 196.535156 257.78125 C 198.664062 256.398438 200.5625 254.882812 202.289062 253.234375 C 209.324219 246.484375 213.199219 237.664062 215.039062 228.863281 C 215.828125 225.140625 216.210938 221.363281 216.34375 217.511719 C 216.6875 207.671875 215.058594 197.527344 214.273438 186.828125 C 214.082031 184.125 213.945312 181.402344 213.910156 178.660156 C 213.851562 174.382812 214.023438 170.066406 214.542969 165.773438 C 215.308594 159.464844 216.707031 153.289062 218.644531 147.421875 C 219.816406 143.929688 221.15625 140.535156 222.671875 137.257812 C 226.390625 129.242188 231.167969 121.859375 236.882812 115.492188 C 239.929688 112.097656 243.25 109.03125 246.851562 106.269531 C 254.273438 100.554688 262.921875 96.429688 272.203125 93.84375 C 275.464844 92.941406 278.800781 92.210938 282.195312 91.65625 C 294.792969 89.644531 308.101562 90.121094 320.988281 92.828125 C 321.371094 92.902344 321.738281 92.980469 322.121094 93.074219 C 325.324219 93.785156 328.488281 94.628906 331.632812 95.585938 C 332.089844 95.742188 332.511719 95.683594 332.839844 95.625 C 333.339844 95.511719 333.472656 94.609375 332.78125 94.378906 Z M 332.78125 94.378906 " fill-opacity="1" fill-rule="nonzero"/><path fill="#ffffff" d="M 332.4375 103.679688 C 319.894531 99.730469 306.605469 98.15625 293.796875 99.171875 C 290.863281 99.402344 287.96875 99.769531 285.089844 100.265625 C 275.558594 101.953125 266.375 105.136719 258.359375 109.988281 C 254.199219 112.5 250.402344 115.414062 246.929688 118.714844 C 241.3125 124.046875 236.574219 130.355469 232.683594 137.199219 C 230.785156 140.535156 229.097656 144.027344 227.601562 147.632812 C 223.917969 156.511719 221.425781 166.214844 220.371094 176.222656 C 220.160156 178.179688 220.007812 180.136719 219.910156 182.109375 C 219.335938 194 220.890625 205.390625 220.945312 216.246094 C 220.945312 219.101562 220.871094 221.882812 220.621094 224.605469 C 219.738281 234.328125 217.035156 244.109375 210.765625 252.277344 C 209.574219 253.828125 208.25 255.34375 206.792969 256.78125 C 202.441406 261.078125 196.898438 264.261719 190.839844 266.390625 C 184.800781 268.519531 178.433594 269.6875 172.144531 270.742188 C 165.71875 271.835938 159.257812 272.796875 152.929688 274.40625 C 145.410156 276.324219 138.164062 279.105469 131.203125 282.421875 C 129.6875 283.148438 128.171875 283.898438 126.65625 284.664062 C 119.945312 288.136719 113.367188 292.21875 107.769531 297.320312 C 104.699219 300.121094 101.9375 303.226562 99.582031 306.660156 C 98.121094 308.769531 96.875 310.992188 95.800781 313.277344 C 93.980469 317.207031 92.695312 321.425781 91.988281 325.757812 C 90.722656 333.46875 91.085938 341.386719 92.179688 349.175781 C 92.273438 349.863281 92.371094 350.535156 92.484375 351.207031 C 92.964844 354.273438 93.40625 357.304688 94.113281 360.199219 C 94.324219 361.0625 95.667969 360.621094 95.457031 359.757812 C 92.445312 347.734375 91.21875 334.121094 94.382812 321.789062 C 95.015625 319.335938 95.820312 316.9375 96.855469 314.578125 C 98.542969 310.746094 100.808594 307.214844 103.453125 303.996094 C 108.019531 298.472656 113.789062 293.964844 119.90625 290.1875 C 121.613281 289.132812 123.359375 288.136719 125.105469 287.175781 C 131.777344 283.554688 138.738281 280.445312 145.949219 278.011719 C 152.277344 275.84375 158.757812 274.445312 165.316406 273.351562 C 177.261719 271.300781 190.09375 269.785156 200.523438 263.398438 C 202.59375 262.132812 204.472656 260.734375 206.199219 259.199219 C 213.238281 252.984375 217.496094 244.875 219.851562 236.589844 C 220.851562 233.082031 221.484375 229.515625 221.867188 225.851562 C 222.824219 216.457031 221.808594 206.65625 221.347656 196.339844 C 221.234375 193.730469 221.15625 191.105469 221.15625 188.476562 C 221.15625 184.355469 221.347656 180.210938 221.828125 176.070312 C 222.519531 169.992188 223.746094 164.027344 225.433594 158.332031 C 226.449219 154.9375 227.621094 151.621094 228.941406 148.417969 C 232.203125 140.574219 236.382812 133.269531 241.503906 126.84375 C 244.246094 123.429688 247.257812 120.304688 250.554688 117.488281 C 257.382812 111.601562 265.453125 107.226562 274.277344 104.371094 C 277.363281 103.375 280.527344 102.546875 283.785156 101.898438 C 295.808594 99.539062 308.660156 99.671875 321.085938 102.203125 C 321.449219 102.28125 321.8125 102.355469 322.160156 102.433594 C 325.246094 103.105469 328.292969 103.910156 331.304688 104.851562 C 331.765625 105.003906 332.148438 104.925781 332.457031 104.832031 C 333.011719 104.734375 333.109375 103.890625 332.4375 103.679688 Z M 332.4375 103.679688 " fill-opacity="1" fill-rule="nonzero"/><path fill="#ffffff" d="M 332.109375 112.960938 C 320.066406 109.105469 307.238281 107.839844 294.964844 109.203125 C 292.167969 109.507812 289.386719 109.96875 286.644531 110.546875 C 277.554688 112.5 268.867188 115.972656 261.425781 121.054688 C 257.574219 123.699219 254.082031 126.710938 250.957031 130.066406 C 245.875 135.511719 241.695312 141.820312 238.320312 148.589844 C 236.671875 151.890625 235.214844 155.320312 233.949219 158.851562 C 230.785156 167.535156 228.710938 176.914062 227.753906 186.519531 C 227.5625 188.402344 227.429688 190.28125 227.332031 192.179688 C 226.738281 203.570312 227.773438 214.59375 227.160156 224.988281 C 226.988281 227.730469 226.738281 230.394531 226.296875 232.984375 C 224.761719 242.265625 221.386719 251.316406 214.886719 258.796875 C 213.640625 260.234375 212.296875 261.597656 210.839844 262.898438 C 206.46875 266.8125 201.078125 269.726562 195.25 271.742188 C 189.421875 273.734375 183.34375 274.90625 177.300781 275.960938 C 171.144531 277.050781 164.933594 278.011719 158.855469 279.5625 C 151.625 281.40625 144.644531 283.976562 137.914062 287.101562 C 136.457031 287.773438 134.980469 288.480469 133.523438 289.210938 C 127.039062 292.488281 120.691406 296.363281 115.285156 301.234375 C 112.3125 303.898438 109.648438 306.871094 107.347656 310.148438 C 105.925781 312.164062 104.699219 314.292969 103.644531 316.476562 C 101.824219 320.238281 100.519531 324.246094 99.753906 328.40625 C 98.390625 335.789062 98.582031 343.421875 99.714844 350.898438 C 99.808594 351.550781 99.925781 352.203125 100.039062 352.855469 C 100.558594 355.789062 101.074219 358.703125 101.882812 361.425781 C 102.128906 362.289062 103.472656 361.792969 103.203125 360.929688 C 99.773438 349.5 98.910156 336.324219 102.207031 324.550781 C 102.859375 322.210938 103.703125 319.910156 104.738281 317.667969 C 106.425781 314.003906 108.632812 310.648438 111.199219 307.582031 C 115.648438 302.308594 121.210938 298.03125 127.117188 294.464844 C 128.765625 293.46875 130.453125 292.507812 132.140625 291.625 C 138.585938 288.210938 145.316406 285.316406 152.257812 283.035156 C 158.296875 281.023438 164.472656 279.679688 170.722656 278.605469 C 182.210938 276.554688 194.445312 274.960938 204.628906 269.09375 C 206.640625 267.925781 208.5 266.640625 210.226562 265.257812 C 217.246094 259.582031 221.90625 252.179688 224.78125 244.414062 C 225.988281 241.136719 226.871094 237.761719 227.484375 234.269531 C 229.058594 225.316406 228.65625 215.859375 228.519531 205.925781 C 228.484375 203.433594 228.484375 200.902344 228.519531 198.371094 C 228.597656 194.402344 228.789062 190.433594 229.230469 186.464844 C 229.863281 180.613281 230.898438 174.882812 232.335938 169.339844 C 233.199219 166.042969 234.195312 162.820312 235.328125 159.695312 C 238.109375 152.023438 241.714844 144.773438 246.257812 138.332031 C 248.695312 134.898438 251.378906 131.734375 254.390625 128.820312 C 260.601562 122.761719 268.121094 118.140625 276.460938 114.992188 C 279.375 113.902344 282.386719 112.980469 285.492188 112.25 C 296.960938 109.546875 309.347656 109.335938 321.316406 111.675781 C 321.660156 111.753906 322.003906 111.8125 322.351562 111.886719 C 325.324219 112.5 328.257812 113.289062 331.152344 114.207031 C 331.59375 114.34375 331.976562 114.265625 332.246094 114.132812 C 332.667969 113.976562 332.742188 113.171875 332.109375 112.960938 Z M 332.109375 112.960938 " fill-opacity="1" fill-rule="nonzero"/><path fill="#ffffff" d="M 331.765625 122.261719 C 320.222656 118.523438 307.851562 117.523438 296.117188 119.230469 C 293.433594 119.617188 290.785156 120.152344 288.179688 120.824219 C 279.53125 123.046875 271.339844 126.824219 264.476562 132.136719 C 260.910156 134.898438 257.765625 138.003906 254.964844 141.4375 C 250.421875 146.980469 246.816406 153.308594 243.9375 160 C 242.539062 163.261719 241.332031 166.636719 240.257812 170.085938 C 237.628906 178.582031 235.960938 187.613281 235.097656 196.855469 C 234.925781 198.660156 234.792969 200.460938 234.695312 202.285156 C 234.0625 213.195312 234.601562 223.820312 233.335938 233.789062 C 232.988281 236.417969 232.546875 238.96875 231.933594 241.421875 C 229.75 250.261719 225.703125 258.605469 218.953125 265.394531 C 217.667969 266.695312 216.304688 267.925781 214.828125 269.113281 C 210.4375 272.640625 205.203125 275.308594 199.601562 277.167969 C 194.003906 279.027344 188.175781 280.195312 182.402344 281.25 C 176.496094 282.34375 170.550781 283.324219 164.703125 284.800781 C 157.78125 286.542969 151.03125 288.941406 144.546875 291.855469 C 143.128906 292.488281 141.730469 293.160156 140.308594 293.851562 C 134.058594 296.9375 127.941406 300.601562 122.726562 305.242188 C 119.867188 307.773438 117.28125 310.628906 115.035156 313.734375 C 113.65625 315.652344 112.449219 317.667969 111.394531 319.757812 C 109.589844 323.324219 108.246094 327.160156 107.421875 331.128906 C 105.945312 338.1875 105.964844 345.53125 107.15625 352.683594 C 107.25 353.316406 107.367188 353.929688 107.480469 354.5625 C 108.019531 357.382812 108.632812 360.144531 109.53125 362.730469 C 109.839844 363.574219 111.144531 363.039062 110.855469 362.195312 C 107.019531 351.339844 106.503906 338.628906 109.953125 327.410156 C 110.644531 325.183594 111.488281 323 112.523438 320.871094 C 114.210938 317.398438 116.359375 314.195312 118.871094 311.28125 C 123.1875 306.257812 128.554688 302.210938 134.25 298.835938 C 135.84375 297.898438 137.453125 296.996094 139.082031 296.152344 C 145.296875 292.929688 151.796875 290.265625 158.46875 288.136719 C 164.222656 286.277344 170.089844 285.011719 176.015625 283.917969 C 187.0625 281.867188 198.703125 280.195312 208.617188 274.867188 C 210.570312 273.8125 212.414062 272.640625 214.140625 271.394531 C 221.136719 266.273438 226.199219 259.5625 229.59375 252.316406 C 231.03125 249.265625 232.144531 246.082031 233.007812 242.765625 C 235.214844 234.269531 235.40625 225.140625 235.617188 215.613281 C 235.65625 213.214844 235.710938 210.78125 235.808594 208.363281 C 235.941406 204.566406 236.152344 200.75 236.535156 196.933594 C 237.09375 191.316406 237.957031 185.792969 239.144531 180.421875 C 239.855469 177.222656 240.679688 174.09375 241.617188 171.027344 C 243.917969 163.527344 246.949219 156.355469 250.917969 149.855469 C 253.027344 146.40625 255.425781 143.183594 258.128906 140.191406 C 263.730469 133.960938 270.691406 129.089844 278.550781 125.675781 C 281.292969 124.488281 284.152344 123.46875 287.105469 122.644531 C 297.996094 119.597656 309.941406 119.058594 321.429688 121.207031 C 321.753906 121.265625 322.101562 121.339844 322.425781 121.398438 C 325.285156 121.972656 328.101562 122.722656 330.863281 123.625 C 331.304688 123.757812 331.652344 123.660156 331.898438 123.488281 C 332.339844 123.203125 332.378906 122.453125 331.765625 122.261719 Z M 331.765625 122.261719 " fill-opacity="1" fill-rule="nonzero"/><path fill="#ffffff" d="M 331.441406 131.542969 C 320.394531 127.898438 308.484375 127.191406 297.285156 129.242188 C 294.738281 129.703125 292.207031 130.316406 289.730469 131.0625 C 281.503906 133.574219 273.835938 137.621094 267.5625 143.164062 C 264.304688 146.039062 261.464844 149.261719 259.011719 152.734375 C 255.003906 158.390625 251.953125 164.738281 249.613281 171.332031 C 248.464844 174.554688 247.484375 177.871094 246.640625 181.230469 C 244.550781 189.511719 243.265625 198.21875 242.5 207.078125 C 242.347656 208.804688 242.230469 210.550781 242.117188 212.273438 C 241.445312 222.707031 241.484375 232.925781 239.566406 242.457031 C 239.046875 244.96875 238.433594 247.386719 237.628906 249.707031 C 234.773438 258.105469 230.054688 265.71875 223.074219 271.816406 C 221.75 272.988281 220.351562 274.078125 218.875 275.132812 C 214.464844 278.28125 209.382812 280.675781 203.996094 282.421875 C 198.625 284.167969 193.0625 285.316406 187.523438 286.371094 C 181.882812 287.445312 176.1875 288.460938 170.589844 289.863281 C 163.953125 291.53125 157.472656 293.714844 151.203125 296.4375 C 149.839844 297.035156 148.480469 297.648438 147.136719 298.300781 C 141.117188 301.175781 135.246094 304.664062 130.203125 309.078125 C 127.441406 311.492188 124.949219 314.195312 122.765625 317.148438 C 121.421875 318.972656 120.234375 320.890625 119.199219 322.863281 C 117.414062 326.257812 116.035156 329.902344 115.152344 333.679688 C 113.558594 340.410156 113.425781 347.449219 114.652344 354.292969 C 114.769531 354.886719 114.882812 355.484375 114.996094 356.078125 C 115.574219 358.761719 116.261719 361.410156 117.261719 363.84375 C 117.605469 364.6875 118.910156 364.09375 118.566406 363.25 C 114.347656 352.953125 114.152344 340.738281 117.757812 330.035156 C 118.46875 327.90625 119.351562 325.835938 120.386719 323.824219 C 122.074219 320.542969 124.183594 317.496094 126.617188 314.734375 C 130.816406 309.957031 135.976562 306.140625 141.480469 302.960938 C 143.015625 302.078125 144.566406 301.234375 146.140625 300.445312 C 152.125 297.4375 158.394531 294.980469 164.796875 293.007812 C 170.265625 291.300781 175.84375 290.09375 181.445312 289.019531 C 192.027344 286.984375 203.074219 285.222656 212.738281 280.425781 C 214.65625 279.46875 216.460938 278.433594 218.183594 277.320312 C 225.183594 272.738281 230.609375 266.714844 234.542969 260.003906 C 236.191406 257.167969 237.554688 254.195312 238.664062 251.050781 C 241.484375 242.996094 242.308594 234.210938 242.828125 225.066406 C 242.960938 222.765625 243.074219 220.445312 243.210938 218.105469 C 243.402344 214.460938 243.632812 210.796875 243.976562 207.15625 C 244.476562 201.785156 245.148438 196.453125 246.085938 191.257812 C 246.640625 188.171875 247.292969 185.121094 248.042969 182.109375 C 249.882812 174.785156 252.320312 167.671875 255.710938 161.152344 C 257.515625 157.679688 259.585938 154.402344 262.003906 151.332031 C 266.988281 144.949219 273.394531 139.808594 280.777344 136.125 C 283.363281 134.839844 286.050781 133.730469 288.847656 132.808594 C 299.183594 129.414062 310.652344 128.53125 321.699219 130.507812 C 322.023438 130.566406 322.332031 130.621094 322.65625 130.679688 C 325.398438 131.21875 328.101562 131.925781 330.75 132.808594 C 331.171875 132.941406 331.515625 132.808594 331.726562 132.636719 C 331.996094 132.425781 332.015625 131.734375 331.441406 131.542969 Z M 331.441406 131.542969 " fill-opacity="1" fill-rule="nonzero"/><path fill="#ffffff" d="M 331.09375 140.84375 C 320.546875 137.296875 309.097656 136.875 298.4375 139.269531 C 296.003906 139.808594 293.605469 140.519531 291.265625 141.34375 C 283.480469 144.121094 276.308594 148.457031 270.613281 154.230469 C 267.660156 157.21875 265.148438 160.539062 263.019531 164.085938 C 259.546875 169.839844 257.054688 176.203125 255.234375 182.722656 C 254.332031 185.90625 253.585938 189.167969 252.953125 192.445312 C 251.378906 200.539062 250.515625 208.917969 249.84375 217.375 C 249.710938 219.023438 249.59375 220.691406 249.480469 222.34375 C 248.789062 232.292969 248.292969 242.132812 245.722656 251.203125 C 245.03125 253.601562 244.226562 255.902344 243.25 258.085938 C 239.738281 266.027344 234.351562 272.949219 227.140625 278.355469 C 225.777344 279.390625 224.339844 280.371094 222.863281 281.289062 C 218.433594 284.050781 213.507812 286.179688 208.347656 287.789062 C 203.207031 289.402344 197.898438 290.550781 192.625 291.605469 C 187.234375 292.679688 181.808594 293.695312 176.457031 295.019531 C 170.109375 296.59375 163.878906 298.585938 157.855469 301.117188 C 156.554688 301.675781 155.230469 302.25 153.945312 302.84375 C 148.152344 305.527344 142.515625 308.808594 137.664062 312.988281 C 135 315.269531 132.601562 317.839844 130.492188 320.640625 C 129.1875 322.367188 128.019531 324.167969 126.984375 326.046875 C 125.21875 329.25 123.800781 332.722656 122.859375 336.308594 C 121.171875 342.710938 120.867188 349.460938 122.132812 356 C 122.246094 356.574219 122.363281 357.132812 122.496094 357.707031 C 123.109375 360.257812 123.894531 362.75 124.96875 365.070312 C 125.351562 365.894531 126.65625 365.261719 126.253906 364.4375 C 121.652344 354.695312 121.785156 342.960938 125.527344 332.816406 C 126.273438 330.804688 127.15625 328.847656 128.191406 326.949219 C 129.878906 323.859375 131.929688 320.984375 134.289062 318.359375 C 138.355469 313.851562 143.320312 310.246094 148.613281 307.253906 C 150.089844 306.429688 151.585938 305.644531 153.101562 304.894531 C 158.855469 302.097656 164.875 299.851562 171.03125 298.03125 C 176.207031 296.476562 181.480469 295.328125 186.773438 294.273438 C 196.917969 292.238281 207.371094 290.398438 216.765625 286.140625 C 218.625 285.296875 220.410156 284.378906 222.136719 283.378906 C 229.117188 279.335938 234.945312 274.023438 239.394531 267.828125 C 241.253906 265.21875 242.863281 262.441406 244.207031 259.46875 C 247.660156 251.855469 249.078125 243.417969 249.921875 234.671875 C 250.132812 232.46875 250.324219 230.242188 250.476562 228.019531 C 250.746094 224.527344 250.976562 221.039062 251.285156 217.546875 C 251.707031 212.410156 252.203125 207.289062 252.894531 202.265625 C 253.296875 199.273438 253.777344 196.300781 254.332031 193.386719 C 255.695312 186.234375 257.554688 179.195312 260.355469 172.617188 C 261.847656 169.128906 263.613281 165.792969 265.722656 162.648438 C 270.09375 156.089844 275.945312 150.699219 282.847656 146.75 C 285.261719 145.371094 287.792969 144.160156 290.441406 143.144531 C 300.222656 139.386719 311.226562 138.179688 321.792969 139.980469 C 322.101562 140.039062 322.40625 140.097656 322.714844 140.152344 C 325.339844 140.652344 327.929688 141.324219 330.460938 142.167969 C 330.863281 142.300781 331.191406 142.148438 331.382812 141.9375 C 331.667969 141.667969 331.652344 141.035156 331.09375 140.84375 Z M 331.09375 140.84375 " fill-opacity="1" fill-rule="nonzero"/><path fill="#ffffff" d="M 330.75 150.125 C 320.699219 146.671875 309.714844 146.558594 299.589844 149.28125 C 297.269531 149.914062 295.003906 150.679688 292.800781 151.601562 C 285.4375 154.652344 278.78125 159.292969 273.679688 165.292969 C 271.035156 168.417969 268.847656 171.8125 267.027344 175.4375 C 264.09375 181.304688 262.175781 187.691406 260.851562 194.113281 C 260.199219 197.261719 259.703125 200.441406 259.28125 203.664062 C 258.246094 211.546875 257.765625 219.601562 257.207031 227.671875 C 257.09375 229.246094 256.980469 230.835938 256.863281 232.410156 C 256.132812 241.882812 255.136719 251.316406 251.914062 259.964844 C 251.054688 262.25 250.054688 264.414062 248.90625 266.484375 C 244.707031 273.984375 238.683594 280.179688 231.226562 284.894531 C 229.804688 285.796875 228.347656 286.640625 226.871094 287.425781 C 222.421875 289.804688 217.648438 291.664062 212.71875 293.160156 C 207.792969 294.65625 202.75 295.789062 197.742188 296.84375 C 192.625 297.914062 187.445312 298.953125 182.34375 300.199219 C 176.285156 301.695312 170.320312 303.476562 164.53125 305.816406 C 163.265625 306.316406 162.019531 306.851562 160.773438 307.40625 C 155.210938 309.902344 149.804688 312.988281 145.125 316.917969 C 142.574219 319.066406 140.253906 321.503906 138.199219 324.148438 C 136.933594 325.777344 135.785156 327.484375 134.769531 329.25 C 133.003906 332.28125 131.566406 335.539062 130.570312 338.953125 C 128.765625 345.03125 128.285156 351.496094 129.609375 357.707031 C 129.726562 358.246094 129.859375 358.78125 129.992188 359.316406 C 130.625 361.753906 131.527344 364.09375 132.679688 366.277344 C 133.121094 367.105469 134.402344 366.414062 133.964844 365.589844 C 129.015625 356.382812 129.417969 345.148438 133.332031 335.558594 C 134.097656 333.660156 135.019531 331.800781 136.035156 330.015625 C 137.722656 327.101562 139.734375 324.398438 142.015625 321.925781 C 145.96875 317.667969 150.722656 314.292969 155.804688 311.511719 C 157.222656 310.746094 158.664062 310.015625 160.121094 309.324219 C 165.640625 306.71875 171.433594 304.703125 177.339844 303.035156 C 182.230469 301.636719 187.214844 300.542969 192.164062 299.507812 C 201.847656 297.476562 211.703125 295.558594 220.851562 291.835938 C 222.652344 291.109375 224.417969 290.304688 226.144531 289.441406 C 233.125 285.949219 239.335938 281.328125 244.304688 275.652344 C 246.375 273.273438 248.234375 270.6875 249.824219 267.886719 C 253.890625 260.734375 255.925781 252.621094 257.09375 244.261719 C 257.382812 242.152344 257.628906 240.042969 257.839844 237.914062 C 258.167969 234.597656 258.417969 231.257812 258.667969 227.921875 C 259.03125 223.011719 259.355469 218.105469 259.777344 213.234375 C 260.027344 210.339844 260.335938 207.460938 260.679688 204.605469 C 261.5625 197.625 262.847656 190.664062 265.070312 184.046875 C 266.261719 180.558594 267.71875 177.164062 269.519531 173.921875 C 273.277344 167.191406 278.570312 161.554688 284.996094 157.335938 C 287.238281 155.859375 289.617188 154.554688 292.109375 153.441406 C 301.3125 149.339844 311.859375 147.804688 321.984375 149.414062 C 322.273438 149.453125 322.582031 149.511719 322.867188 149.570312 C 325.378906 150.011719 327.835938 150.660156 330.25 151.488281 C 330.652344 151.621094 330.960938 151.449219 331.113281 151.199219 C 331.34375 150.890625 331.285156 150.316406 330.75 150.125 Z M 330.75 150.125 " fill-opacity="1" fill-rule="nonzero"/><path fill="#ffffff" d="M 330.421875 159.425781 C 320.894531 156.089844 310.347656 156.242188 300.757812 159.328125 C 291.246094 162.378906 282.636719 168.265625 276.75 176.359375 C 270.574219 184.851562 267.8125 195.226562 266.488281 205.503906 C 265.109375 216.261719 265.222656 227.15625 264.574219 237.972656 C 263.941406 248.421875 262.636719 259.140625 258.109375 268.710938 C 253.335938 278.796875 245.128906 286.277344 235.328125 291.414062 C 225.183594 296.726562 213.984375 299.601562 202.863281 302.058594 C 190.953125 304.703125 178.855469 307.082031 167.597656 311.953125 C 162.265625 314.253906 157.089844 317.128906 152.601562 320.851562 C 148.652344 324.128906 145.238281 328.097656 142.554688 332.472656 C 137.414062 340.851562 134.671875 351.320312 137.492188 360.96875 C 138.164062 363.269531 139.140625 365.472656 140.386719 367.507812 C 140.886719 368.3125 142.152344 367.582031 141.652344 366.757812 C 136.359375 358.050781 137.050781 347.371094 141.117188 338.320312 C 143.226562 333.601562 146.160156 329.269531 149.726562 325.53125 C 153.542969 321.523438 158.105469 318.375 162.976562 315.789062 C 173.714844 310.09375 185.71875 307.332031 197.511719 304.742188 C 208.558594 302.308594 219.660156 299.929688 230.113281 295.5 C 239.988281 291.300781 249.171875 285.203125 255.40625 276.304688 C 261.273438 267.90625 263.921875 257.875 265.167969 247.828125 C 266.488281 237.222656 266.394531 226.523438 267.027344 215.878906 C 267.660156 205.488281 268.945312 194.824219 273.316406 185.253906 C 277.554688 175.9375 284.707031 168.496094 293.796875 163.816406 C 302.695312 159.234375 313.125 157.375 323.019531 159.0625 C 325.417969 159.464844 327.757812 160.078125 330.058594 160.882812 C 330.921875 161.152344 331.304688 159.730469 330.421875 159.425781 Z M 330.421875 159.425781 " fill-opacity="1" fill-rule="nonzero"/></svg>