<svg xmlns="http://www.w3.org/2000/svg" xmlns:xlink="http://www.w3.org/1999/xlink" width="1920" zoomAndPan="magnify" viewBox="0 0 1440 809.999993" height="1080" preserveAspectRatio="xMidYMid meet" version="1.0"><defs><g/></defs><g fill="#000000" fill-opacity="1"><g transform="translate(266.61389, 423.363843)"><g><path d="M 51.859375 0 L 26.5 0 L 26.5 -194.8125 L 106.4375 -194.8125 C 115.882812 -194.8125 124.546875 -193.234375 132.421875 -190.078125 C 140.304688 -186.929688 147.160156 -182.515625 152.984375 -176.828125 C 158.816406 -171.148438 163.304688 -164.421875 166.453125 -156.640625 C 169.609375 -148.859375 171.1875 -140.382812 171.1875 -131.21875 C 171.1875 -121.664062 169.609375 -112.945312 166.453125 -105.0625 C 163.304688 -97.1875 158.863281 -90.382812 153.125 -84.65625 C 147.394531 -78.925781 140.613281 -74.484375 132.78125 -71.328125 C 124.957031 -68.179688 116.363281 -66.609375 107 -66.609375 L 51.859375 -66.609375 Z M 51.859375 -172.046875 L 51.859375 -89.53125 L 105.859375 -89.53125 C 113.503906 -89.53125 120.332031 -91.34375 126.34375 -94.96875 C 132.363281 -98.601562 137.113281 -103.570312 140.59375 -109.875 C 144.082031 -116.175781 145.828125 -123.242188 145.828125 -131.078125 C 145.828125 -136.710938 144.820312 -141.988281 142.8125 -146.90625 C 140.8125 -151.820312 137.972656 -156.164062 134.296875 -159.9375 C 130.617188 -163.707031 126.34375 -166.664062 121.46875 -168.8125 C 116.601562 -170.96875 111.304688 -172.046875 105.578125 -172.046875 Z M 51.859375 -172.046875 "/></g></g></g><g fill="#000000" fill-opacity="1"><g transform="translate(443.662992, 423.363843)"><g><path d="M 35.8125 -174.625 C 30.75 -174.625 26.710938 -176.148438 23.703125 -179.203125 C 20.703125 -182.265625 19.203125 -185.988281 19.203125 -190.375 C 19.203125 -194.675781 20.703125 -198.351562 23.703125 -201.40625 C 26.710938 -204.46875 30.796875 -206 35.953125 -206 C 41.203125 -206 45.332031 -204.46875 48.34375 -201.40625 C 51.351562 -198.351562 52.859375 -194.675781 52.859375 -190.375 C 52.859375 -185.988281 51.351562 -182.265625 48.34375 -179.203125 C 45.332031 -176.148438 41.15625 -174.625 35.8125 -174.625 Z M 48.28125 0 L 23.640625 0 L 23.640625 -146.109375 L 48.28125 -146.109375 Z M 48.28125 0 "/></g></g></g><g fill="#000000" fill-opacity="1"><g transform="translate(515.590437, 423.363843)"><g><path d="M 112.3125 4.15625 C 100.851562 4.15625 89.960938 2.460938 79.640625 -0.921875 C 69.328125 -4.316406 59.894531 -9.117188 51.34375 -15.328125 C 42.800781 -21.535156 35.398438 -28.890625 29.140625 -37.390625 C 22.890625 -45.890625 18.046875 -55.25 14.609375 -65.46875 C 11.171875 -75.6875 9.453125 -86.429688 9.453125 -97.703125 C 9.453125 -109.066406 11.171875 -119.832031 14.609375 -130 C 18.046875 -140.164062 22.890625 -149.472656 29.140625 -157.921875 C 35.398438 -166.378906 42.800781 -173.710938 51.34375 -179.921875 C 59.894531 -186.128906 69.328125 -190.925781 79.640625 -194.3125 C 89.960938 -197.707031 100.851562 -199.40625 112.3125 -199.40625 C 122.625 -199.40625 132.835938 -197.875 142.953125 -194.8125 C 153.078125 -191.757812 162.53125 -187.101562 171.3125 -180.84375 C 180.101562 -174.59375 187.554688 -166.691406 193.671875 -157.140625 C 199.785156 -147.585938 203.988281 -136.320312 206.28125 -123.34375 L 169.890625 -123.34375 C 167.316406 -133.363281 163.1875 -141.570312 157.5 -147.96875 C 151.820312 -154.375 145.019531 -159.101562 137.09375 -162.15625 C 129.164062 -165.21875 120.570312 -166.75 111.3125 -166.75 C 102.132812 -166.75 93.535156 -165.097656 85.515625 -161.796875 C 77.492188 -158.503906 70.453125 -153.800781 64.390625 -147.6875 C 58.328125 -141.570312 53.597656 -134.289062 50.203125 -125.84375 C 46.816406 -117.394531 45.125 -107.960938 45.125 -97.546875 C 45.125 -86.953125 46.816406 -77.425781 50.203125 -68.96875 C 53.597656 -60.519531 58.328125 -53.285156 64.390625 -47.265625 C 70.453125 -41.253906 77.492188 -36.648438 85.515625 -33.453125 C 93.535156 -30.253906 102.132812 -28.65625 111.3125 -28.65625 C 120.570312 -28.65625 129.140625 -30.179688 137.015625 -33.234375 C 144.898438 -36.285156 151.707031 -41.007812 157.4375 -47.40625 C 163.164062 -53.8125 167.269531 -61.976562 169.75 -71.90625 L 206.28125 -71.90625 C 203.988281 -58.914062 199.785156 -47.625 193.671875 -38.03125 C 187.554688 -28.4375 180.15625 -20.535156 171.46875 -14.328125 C 162.78125 -8.117188 153.347656 -3.484375 143.171875 -0.421875 C 133.003906 2.628906 122.71875 4.15625 112.3125 4.15625 Z M 112.3125 4.15625 "/></g></g></g><g fill="#000000" fill-opacity="1"><g transform="translate(731.458557, 423.363843)"><g><path d="M 197.25 0 L 159.578125 0 L 144.109375 -37.671875 L 54.4375 -37.671875 L 38.96875 0 L 1.296875 0 L 82.375 -194.96875 L 116.171875 -194.96875 Z M 97.984375 -144.25 L 66.609375 -67.46875 L 131.9375 -67.46875 L 100.421875 -144.25 L 99.5625 -148.984375 L 99.125 -148.984375 Z M 97.984375 -144.25 "/></g></g></g><g fill="#000000" fill-opacity="1"><g transform="translate(930.137443, 423.363843)"><g><path d="M 58.875 0 L 23.203125 0 L 23.203125 -194.8125 L 54.296875 -194.8125 L 121.46875 -104 L 189.09375 -194.8125 L 220.171875 -194.8125 L 220.171875 0 L 184.5 0 L 184.5 -137.65625 L 126.203125 -58.015625 L 116.609375 -58.015625 L 58.875 -137.953125 Z M 58.875 0 "/></g></g></g><g fill="#000000" fill-opacity="1"><g transform="translate(281.834336, 574.920656)"><g><path d="M 68.8125 2.359375 C 61.84375 2.359375 55.25 1.328125 49.03125 -0.734375 C 42.820312 -2.796875 37.160156 -5.710938 32.046875 -9.484375 C 26.941406 -13.265625 22.515625 -17.722656 18.765625 -22.859375 C 15.023438 -28.003906 12.140625 -33.648438 10.109375 -39.796875 C 8.078125 -45.953125 7.0625 -52.457031 7.0625 -59.3125 C 7.0625 -66.21875 8.078125 -72.765625 10.109375 -78.953125 C 12.140625 -85.140625 15.023438 -90.800781 18.765625 -95.9375 C 22.515625 -101.070312 26.941406 -105.507812 32.046875 -109.25 C 37.160156 -113 42.820312 -115.90625 49.03125 -117.96875 C 55.25 -120.03125 61.84375 -121.0625 68.8125 -121.0625 C 75.082031 -121.0625 81.207031 -120.175781 87.1875 -118.40625 C 93.164062 -116.632812 98.679688 -113.960938 103.734375 -110.390625 C 108.785156 -106.828125 113.109375 -102.359375 116.703125 -96.984375 C 120.304688 -91.609375 122.832031 -85.351562 124.28125 -78.21875 L 108.609375 -78.21875 C 106.804688 -84.601562 103.957031 -89.914062 100.0625 -94.15625 C 96.175781 -98.394531 91.519531 -101.570312 86.09375 -103.6875 C 80.664062 -105.8125 74.757812 -106.875 68.375 -106.875 C 61.925781 -106.875 55.914062 -105.710938 50.34375 -103.390625 C 44.769531 -101.066406 39.90625 -97.769531 35.75 -93.5 C 31.601562 -89.226562 28.351562 -84.203125 26 -78.421875 C 23.644531 -72.648438 22.46875 -66.28125 22.46875 -59.3125 C 22.46875 -52.34375 23.644531 -45.953125 26 -40.140625 C 28.351562 -34.335938 31.601562 -29.332031 35.75 -25.125 C 39.90625 -20.914062 44.769531 -17.664062 50.34375 -15.375 C 55.914062 -13.082031 61.925781 -11.9375 68.375 -11.9375 C 74.757812 -11.9375 80.648438 -12.992188 86.046875 -15.109375 C 91.453125 -17.234375 96.113281 -20.410156 100.03125 -24.640625 C 103.945312 -28.878906 106.773438 -34.164062 108.515625 -40.5 L 124.28125 -40.5 C 122.832031 -33.351562 120.320312 -27.09375 116.75 -21.71875 C 113.175781 -16.351562 108.863281 -11.882812 103.8125 -8.3125 C 98.769531 -4.75 93.253906 -2.078125 87.265625 -0.296875 C 81.285156 1.472656 75.132812 2.359375 68.8125 2.359375 Z M 68.8125 2.359375 "/></g></g></g><g fill="#000000" fill-opacity="1"><g transform="translate(413.265693, 574.920656)"><g><path d="M 70.28125 2.359375 C 63.3125 2.359375 56.660156 1.328125 50.328125 -0.734375 C 44.003906 -2.796875 38.210938 -5.710938 32.953125 -9.484375 C 27.703125 -13.265625 23.128906 -17.722656 19.234375 -22.859375 C 15.347656 -28.003906 12.347656 -33.648438 10.234375 -39.796875 C 8.117188 -45.953125 7.0625 -52.457031 7.0625 -59.3125 C 7.0625 -66.21875 8.117188 -72.765625 10.234375 -78.953125 C 12.347656 -85.140625 15.347656 -90.800781 19.234375 -95.9375 C 23.128906 -101.070312 27.703125 -105.507812 32.953125 -109.25 C 38.210938 -113 44.003906 -115.90625 50.328125 -117.96875 C 56.660156 -120.03125 63.3125 -121.0625 70.28125 -121.0625 C 77.3125 -121.0625 83.988281 -120.03125 90.3125 -117.96875 C 96.644531 -115.90625 102.453125 -113 107.734375 -109.25 C 113.023438 -105.507812 117.613281 -101.070312 121.5 -95.9375 C 125.394531 -90.800781 128.398438 -85.140625 130.515625 -78.953125 C 132.628906 -72.765625 133.6875 -66.21875 133.6875 -59.3125 C 133.6875 -52.457031 132.628906 -45.953125 130.515625 -39.796875 C 128.398438 -33.648438 125.394531 -28.003906 121.5 -22.859375 C 117.613281 -17.722656 113.023438 -13.265625 107.734375 -9.484375 C 102.453125 -5.710938 96.644531 -2.796875 90.3125 -0.734375 C 83.988281 1.328125 77.3125 2.359375 70.28125 2.359375 Z M 70.28125 -11.9375 C 76.90625 -11.9375 83.117188 -13.125 88.921875 -15.5 C 94.734375 -17.882812 99.84375 -21.222656 104.25 -25.515625 C 108.664062 -29.816406 112.109375 -34.835938 114.578125 -40.578125 C 117.046875 -46.328125 118.28125 -52.570312 118.28125 -59.3125 C 118.28125 -66.050781 117.046875 -72.304688 114.578125 -78.078125 C 112.109375 -83.859375 108.664062 -88.894531 104.25 -93.1875 C 99.84375 -97.488281 94.734375 -100.84375 88.921875 -103.25 C 83.117188 -105.664062 76.90625 -106.875 70.28125 -106.875 C 63.664062 -106.875 57.46875 -105.664062 51.6875 -103.25 C 45.914062 -100.84375 40.835938 -97.488281 36.453125 -93.1875 C 32.066406 -88.894531 28.640625 -83.859375 26.171875 -78.078125 C 23.703125 -72.304688 22.46875 -66.050781 22.46875 -59.3125 C 22.46875 -52.570312 23.703125 -46.328125 26.171875 -40.578125 C 28.640625 -34.835938 32.066406 -29.816406 36.453125 -25.515625 C 40.835938 -21.222656 45.914062 -17.882812 51.6875 -15.5 C 57.46875 -13.125 63.664062 -11.9375 70.28125 -11.9375 Z M 70.28125 -11.9375 "/></g></g></g><g fill="#000000" fill-opacity="1"><g transform="translate(554.016569, 574.920656)"><g><path d="M 102.171875 -25.609375 L 102.171875 -118.453125 L 117.5 -118.453125 L 117.5 0 L 104.421875 0 L 31.53125 -92.578125 L 31.53125 0 L 16.109375 0 L 16.109375 -118.453125 L 29.09375 -118.453125 L 102.078125 -25.609375 Z M 102.171875 -25.609375 "/></g></g></g><g fill="#000000" fill-opacity="1"><g transform="translate(687.625383, 574.920656)"><g><path d="M 102.171875 -25.609375 L 102.171875 -118.453125 L 117.5 -118.453125 L 117.5 0 L 104.421875 0 L 31.53125 -92.578125 L 31.53125 0 L 16.109375 0 L 16.109375 -118.453125 L 29.09375 -118.453125 L 102.078125 -25.609375 Z M 102.171875 -25.609375 "/></g></g></g><g fill="#000000" fill-opacity="1"><g transform="translate(821.234198, 574.920656)"><g><path d="M 95.625 0 L 16.109375 0 L 16.109375 -118.453125 L 94.84375 -118.453125 L 94.84375 -104.421875 L 31.53125 -104.421875 L 31.53125 -66.890625 L 86.578125 -66.890625 L 86.578125 -53.65625 L 31.53125 -53.65625 L 31.53125 -13.9375 L 95.625 -13.9375 Z M 95.625 0 "/></g></g></g><g fill="#000000" fill-opacity="1"><g transform="translate(923.139226, 574.920656)"><g><path d="M 68.8125 2.359375 C 61.84375 2.359375 55.25 1.328125 49.03125 -0.734375 C 42.820312 -2.796875 37.160156 -5.710938 32.046875 -9.484375 C 26.941406 -13.265625 22.515625 -17.722656 18.765625 -22.859375 C 15.023438 -28.003906 12.140625 -33.648438 10.109375 -39.796875 C 8.078125 -45.953125 7.0625 -52.457031 7.0625 -59.3125 C 7.0625 -66.21875 8.078125 -72.765625 10.109375 -78.953125 C 12.140625 -85.140625 15.023438 -90.800781 18.765625 -95.9375 C 22.515625 -101.070312 26.941406 -105.507812 32.046875 -109.25 C 37.160156 -113 42.820312 -115.90625 49.03125 -117.96875 C 55.25 -120.03125 61.84375 -121.0625 68.8125 -121.0625 C 75.082031 -121.0625 81.207031 -120.175781 87.1875 -118.40625 C 93.164062 -116.632812 98.679688 -113.960938 103.734375 -110.390625 C 108.785156 -106.828125 113.109375 -102.359375 116.703125 -96.984375 C 120.304688 -91.609375 122.832031 -85.351562 124.28125 -78.21875 L 108.609375 -78.21875 C 106.804688 -84.601562 103.957031 -89.914062 100.0625 -94.15625 C 96.175781 -98.394531 91.519531 -101.570312 86.09375 -103.6875 C 80.664062 -105.8125 74.757812 -106.875 68.375 -106.875 C 61.925781 -106.875 55.914062 -105.710938 50.34375 -103.390625 C 44.769531 -101.066406 39.90625 -97.769531 35.75 -93.5 C 31.601562 -89.226562 28.351562 -84.203125 26 -78.421875 C 23.644531 -72.648438 22.46875 -66.28125 22.46875 -59.3125 C 22.46875 -52.34375 23.644531 -45.953125 26 -40.140625 C 28.351562 -34.335938 31.601562 -29.332031 35.75 -25.125 C 39.90625 -20.914062 44.769531 -17.664062 50.34375 -15.375 C 55.914062 -13.082031 61.925781 -11.9375 68.375 -11.9375 C 74.757812 -11.9375 80.648438 -12.992188 86.046875 -15.109375 C 91.453125 -17.234375 96.113281 -20.410156 100.03125 -24.640625 C 103.945312 -28.878906 106.773438 -34.164062 108.515625 -40.5 L 124.28125 -40.5 C 122.832031 -33.351562 120.320312 -27.09375 116.75 -21.71875 C 113.175781 -16.351562 108.863281 -11.882812 103.8125 -8.3125 C 98.769531 -4.75 93.253906 -2.078125 87.265625 -0.296875 C 81.285156 1.472656 75.132812 2.359375 68.8125 2.359375 Z M 68.8125 2.359375 "/></g></g></g><g fill="#000000" fill-opacity="1"><g transform="translate(1054.570582, 574.920656)"><g><path d="M 57.140625 0 L 41.71875 0 L 41.71875 -104.609375 L 4.265625 -104.609375 L 4.265625 -118.453125 L 94.671875 -118.453125 L 94.671875 -104.609375 L 57.140625 -104.609375 Z M 57.140625 0 "/></g></g></g></svg>